<svg width="17" height="12" viewBox="0 0 17 12" fill="none" xmlns="http://www.w3.org/2000/svg">
<path opacity="0.4" fill-rule="evenodd" clip-rule="evenodd" d="M6.14691 4.94809C6.30313 5.10437 6.3909 5.31629 6.3909 5.53726C6.3909 5.75823 6.30313 5.97015 6.14691 6.12643L1.43274 10.8406C1.35587 10.9202 1.26391 10.9837 1.16224 11.0273C1.06057 11.071 0.951224 11.094 0.840575 11.095C0.729925 11.0959 0.620192 11.0748 0.517779 11.0329C0.415365 10.991 0.322321 10.9292 0.244078 10.8509C0.165834 10.7727 0.103956 10.6796 0.0620553 10.5772C0.0201545 10.4748 -0.000930049 10.3651 3.14642e-05 10.2544C0.000992978 10.1438 0.0239815 10.0344 0.0676557 9.93276C0.11133 9.83109 0.174815 9.73913 0.254407 9.66226L4.37941 5.53726L0.254407 1.41226C0.102608 1.25509 0.0186129 1.04459 0.0205116 0.826092C0.0224103 0.607595 0.110051 0.398584 0.264558 0.244078C0.419064 0.0895708 0.628075 0.00193019 0.846572 3.15022e-05C1.06507 -0.00186718 1.27557 0.0821281 1.43274 0.233926L6.14691 4.94809Z" fill="#FF6600"/>
<path fill-rule="evenodd" clip-rule="evenodd" d="M16.5378 4.94809C16.694 5.10437 16.7818 5.31629 16.7818 5.53726C16.7818 5.75823 16.694 5.97015 16.5378 6.12643L11.8236 10.8406C11.7467 10.9202 11.6548 10.9837 11.5531 11.0273C11.4514 11.071 11.3421 11.094 11.2314 11.095C11.1208 11.0959 11.0111 11.0748 10.9086 11.0329C10.8062 10.991 10.7132 10.9292 10.6349 10.8509C10.5567 10.7727 10.4948 10.6796 10.4529 10.5772C10.411 10.4748 10.3899 10.3651 10.3909 10.2544C10.3919 10.1438 10.4149 10.0344 10.4585 9.93276C10.5022 9.83109 10.5657 9.73913 10.6453 9.66226L14.7703 5.53726L10.6453 1.41226C10.4935 1.25509 10.4095 1.04459 10.4114 0.826092C10.4133 0.607595 10.5009 0.398584 10.6554 0.244078C10.8099 0.0895708 11.0189 0.00193019 11.2374 3.15022e-05C11.4559 -0.00186718 11.6664 0.0821281 11.8236 0.233926L16.5378 4.94809Z" fill="#FF6600"/>
</svg>
