<svg width="1280" height="720" viewBox="0 0 1280 720" fill="none" xmlns="http://www.w3.org/2000/svg">
<g opacity="0.02" filter="url(#filter0_d_1256_24727)">
<path d="M566.419 1037.03C566.467 1036.82 566.521 1036.62 566.579 1036.42C574.53 1004.35 601.275 969.768 639.975 937.028C679.276 903.779 731.446 871.812 788.859 846.046C789.09 845.92 789.29 845.827 789.483 845.742L789.813 845.552L789.782 845.498L790.428 845.197L790.394 845.217C791.19 844.862 789.868 845.535 791.343 844.903C792.328 844.482 789.246 845.804 792.284 844.398L792.474 844.432C811.713 835.92 831.258 828.188 850.802 821.421C870.025 814.768 889.584 808.913 909.219 804.012L909.286 803.996C912.706 803.133 914.683 802.597 915.405 802.434L915.429 802.477L917.495 801.961C917.361 801.986 917.161 802.033 917.492 801.956L918.439 801.731L918.917 801.692C918.83 801.713 918.829 801.717 918.969 801.689L919.504 801.592L919.496 801.578L919.723 801.53L919.708 801.505L919.482 801.56L919.453 801.504L919.818 801.433C936.525 797.561 953.314 794.425 970.034 792.115C985.749 789.942 1001.87 788.531 1018.28 787.96C1025.12 787.73 1031.39 787.64 1036.97 787.708C1043.67 787.787 1049.87 788.003 1055.49 788.371C1069.27 789.232 1082.23 790.814 1094.33 793.055C1103.39 794.733 1112.18 796.82 1120.68 799.292C1140.16 766.905 1158.02 728.98 1168.1 690.085C1176.21 658.799 1179.22 627.548 1173.64 599.369L1173.51 598.906L1173.22 597.734L1173.21 597.728C1171.96 593.622 1170.01 587.673 1166.92 581.192L1166.79 580.917L1166.65 580.639L1166.65 580.633L1166.52 580.361L1166.51 580.352L1166.38 580.081L1166.37 580.07L1166.24 579.802L1166.23 579.788L1166.1 579.521L1166.09 579.507L1165.95 579.241L1165.94 579.221L1165.81 578.957L1165.8 578.934L1165.66 578.671L1165.65 578.645L1165.52 578.382L1165.5 578.356L1165.37 578.097L1165.35 578.066L1165.19 577.773L1165.06 577.516L1165.04 577.48L1164.9 577.225L1164.88 577.185L1164.75 576.933L1164.72 576.891L1164.59 576.639L1164.56 576.594L1164.43 576.346L1164.4 576.295L1164.26 576.051L1164.23 575.997L1164.1 575.754L1164.06 575.697L1163.93 575.457L1163.9 575.398L1163.76 575.158L1163.72 575.095L1163.59 574.86L1163.55 574.795L1163.41 574.559L1163.38 574.491L1163.24 574.258L1163.2 574.187L1163.07 573.957L1163.02 573.881L1162.89 573.654L1162.85 573.574L1162.71 573.349L1162.67 573.267L1162.53 573.044L1162.48 572.958L1162.35 572.738L1162.3 572.647L1162.16 572.429L1162.11 572.337L1161.97 572.122L1161.92 572.027L1161.79 571.815L1161.72 571.714L1161.59 571.504L1161.53 571.4L1161.4 571.193L1161.33 571.088L1161.2 570.883L1161.13 570.776L1161 570.575L1160.92 570.462L1160.79 570.264L1160.72 570.148L1160.59 569.951L1160.51 569.832L1160.39 569.637L1160.31 569.517L1160.18 569.325L1160.1 569.199L1159.97 569.012L1159.88 568.883L1159.76 568.699L1159.67 568.565L1159.54 568.38L1159.45 568.244L1159.33 568.063L1159.23 567.924L1159.11 567.745L1159.01 567.603L1158.89 567.427L1158.78 567.282L1158.67 567.108L1158.56 566.961L1158.44 566.792L1158.33 566.638L1158.21 566.472L1158.1 566.318L1157.99 566.154L1157.87 565.994L1157.76 565.833L1157.64 565.67L1157.52 565.514L1157.4 565.347L1157.28 565.189L1157.16 565.021L1157.05 564.869L1156.92 564.695L1156.8 564.545L1156.67 564.369L1156.56 564.222L1156.42 564.041L1156.31 563.899L1156.17 563.715L1156.06 563.574L1155.92 563.389L1155.81 563.253L1155.66 563.062L1155.56 562.926L1155.4 562.731L1155.3 562.598L1155.14 562.4L1155.04 562.273L1154.88 562.071L1154.78 561.946L1154.61 561.741L1154.52 561.621L1154.5 561.639C1153.66 560.609 1152.68 559.469 1151.55 558.207C1150.15 556.627 1148.97 555.335 1148.01 554.334L1148.02 554.312C1143.26 549.407 1137.46 544.309 1130.37 539.12C1122.37 533.266 1113.17 527.6 1102.6 522.338C1089.1 515.63 1074.7 510.13 1059.53 505.74C1045.69 501.737 1031.12 498.644 1015.95 496.387C1001.27 523.86 983.907 550.601 964.434 576.372C942.729 605.096 918.194 632.729 891.685 658.927C869.664 680.691 846.384 701.346 822.193 720.746C797.599 740.465 771.877 759.012 745.395 776.223C664.205 828.996 580.002 866.064 509.06 881.148C435.759 896.736 372.604 887.367 334.477 846.693L331.226 843.224L330.681 842.438C327.582 838.753 324.736 834.558 322.376 830.038C322.005 829.329 321.643 828.618 321.293 827.912L321.266 827.859L321.263 827.854C320.823 827 320.408 826.149 320.017 825.301C309.783 803.818 306.698 783.674 308.677 764.845C310.396 748.454 316.049 732.679 323.881 717.772C345.668 676.235 390.222 632.212 448.382 591.494C507.09 550.388 579.538 512.555 656.158 484.039C656.997 483.626 657.946 483.279 659.137 483.155C670.37 479.526 711.245 466.55 751.449 455.585C775.311 449.076 799.302 443.159 817.497 440.073C846.567 435.162 875.684 432.054 904.407 431.054C929.099 430.195 953.176 430.936 976.323 433.477C996.376 393.207 1011.53 348.627 1015.47 304.275C1018.54 269.776 1014.93 236.329 1001.4 206.917L1000.94 206.177C1000.07 204.848 999.147 203.487 998.171 202.099L998.168 202.093L998.115 202.021L998.094 201.992L998.062 201.95L998.017 201.885L998.013 201.876L997.96 201.805L996.611 199.961L996.534 199.847C996.024 199.154 995.806 198.849 995.712 198.713L995.701 198.694L995.691 198.677C995.207 198.029 994.723 197.401 994.245 196.783L994.084 196.642C992.919 195.143 992.232 194.276 991.952 193.942C991.264 193.117 990.708 192.462 990.261 191.952L990.236 191.921L990.225 191.909L990.208 191.892L990.182 191.862L990.159 191.834L990.133 191.803L990.11 191.775L990.086 191.747L990.062 191.719L990.039 191.691L990.016 191.666L989.993 191.638L989.971 191.613L989.949 191.588L989.654 191.255L984.779 186.366L984.375 185.665L983.589 184.882L983.378 184.694C980.813 182.176 978.184 179.758 975.514 177.445C972.721 175.032 969.806 172.67 966.783 170.371C966.29 169.998 965.806 169.611 965.322 169.213C959.354 164.756 952.837 160.498 945.819 156.442C938.24 152.059 930.154 148.026 921.613 144.327C903.168 136.339 883.355 130.258 862.479 125.902C842.315 121.696 821.08 119.057 799.049 117.831C781.664 162.781 756.285 204.666 725.513 243.01C690.059 287.186 647.004 327.158 600.523 362.015C599.105 363.068 597.591 364.196 595.444 365.779C593.823 366.972 592.141 368.204 590.341 369.501C564.05 388.581 536.958 405.898 509.772 421.318C433.194 464.743 354.812 493.899 290.579 505.454C218.78 518.369 159.107 506.234 129.272 465.169C126.759 461.709 124.457 458.142 122.377 454.474L122.409 454.463C122.118 453.954 121.853 453.475 121.606 453.02L119.836 449.956L117.48 443.825C117.315 443.394 117.037 442.677 117.48 443.825L117.492 443.826L115.893 439.604C114.661 436.702 113.691 433.774 113.046 430.896C109.245 413.932 109.222 397.147 112.597 380.67C115.702 365.499 121.814 350.175 130.58 334.876C151.545 298.229 188.311 261.127 235.448 226.493C283.84 190.938 343.254 157.858 407.705 130.488C422.062 124.408 435.295 119.079 447.295 114.565C459.8 109.861 473.121 105.171 487.238 100.52C508.412 93.5345 530.3 87.1404 552.728 81.433C574.318 75.9367 595.954 71.2352 617.434 67.4215C642.868 62.9068 668.282 59.6182 693.384 57.7205C715.175 56.0734 736.677 55.497 757.689 56.0932C770.953 24.8571 776.056 -11.2006 772.081 -45.4795C768.935 -72.6208 760.181 -97.4401 745.373 -114.935C739.998 -119.561 734.229 -123.865 728.096 -127.853C720.511 -132.785 712.13 -137.321 703.036 -141.465C689.081 -147.826 674.301 -152.818 658.884 -156.554C642.32 -160.569 624.832 -163.215 606.66 -164.614C596.361 -165.425 586.416 -165.846 576.826 -165.902C567.382 -165.954 556.874 -165.622 545.414 -164.923C533.534 -164.201 522.207 -163.158 511.435 -161.82C499.566 -160.343 487.866 -158.541 476.359 -156.426L476.301 -156.388C475.42 -156.232 472.724 -155.712 468.598 -154.903C465.656 -154.329 463.539 -153.909 462.086 -153.614L460.649 -153.311C407.497 -142.233 354.378 -124.556 305.357 -102.788C254.229 -80.0786 207.465 -52.9168 169.667 -24.1256C167.725 -22.6484 165.089 -20.5592 162.477 -18.4875L160.856 -17.2031C148.642 -7.43526 137.5 2.47427 127.614 12.4233C118.294 21.8031 109.912 31.512 102.613 41.4763C94.9556 51.9282 88.955 62.2481 84.8458 72.2704C81.9514 79.3252 80.0498 86.0565 79.2348 92.3837C87.992 94.6296 110.69 92.6215 141.761 87.3794C187.72 79.622 244.166 59.2527 298.989 28.9099C326.455 13.6991 353.434 -3.94645 378.392 -23.6983C393.486 -35.6439 407.873 -48.388 421.224 -61.8546C420.425 -61.722 419.617 -61.5846 418.798 -61.4333C402.214 -58.3811 396.73 -74.3627 395.026 -83.7071C392.377 -98.2271 406.7 -101.011 417 -102.905C443.949 -107.863 479.776 -108.594 493.663 -104.873C498.565 -103.556 502.809 -100.929 506.385 -97.3374C509.765 -93.5649 512.147 -89.1821 513.176 -84.2144C516.089 -70.1498 513.281 -34.4671 506.757 -7.87974C504.267 2.27882 500.654 16.3995 486.296 12.915C477.978 10.8965 464.462 5.50713 464.777 -7.48111C450.556 6.97565 435.162 20.6491 418.981 33.4571C393.13 53.917 365.351 72.1005 337.187 87.699C280.45 119.102 221.817 140.218 173.909 148.303C119.163 157.54 72.7356 146.768 48.299 112.681C41.3825 103.047 36.9333 93.8491 33.9385 84.3C31.9616 77.9919 30.8804 72.3812 30.1465 66.6494C29.7645 64.4373 29.5928 62.3004 29.6728 60.2907C30.1552 47.9547 33.0349 35.5928 38.0543 23.35C42.8928 11.5559 49.7987 -0.376252 58.5236 -12.2842C65.8807 -22.3241 74.9315 -32.7214 85.487 -43.3443C95.8663 -53.786 107.529 -64.1665 120.28 -74.3624L121.899 -75.6449C124.126 -77.4112 126.368 -79.1901 129.429 -81.5168C168.235 -111.076 216.192 -138.938 268.573 -162.204C318.579 -184.412 372.535 -202.435 426.349 -213.771L426.38 -213.789L427.806 -214.086C431.81 -214.923 434.636 -215.506 435.843 -215.742C437.021 -215.975 439.627 -216.447 444.043 -217.233L444.058 -217.208C456.434 -219.48 468.567 -221.366 480.4 -222.833C492.877 -224.385 504.676 -225.51 515.713 -226.181C525.99 -226.807 537.039 -227.095 548.885 -227.029C560.115 -226.964 570.742 -226.551 580.703 -225.768C600.468 -224.244 619.772 -221.296 638.398 -216.784C656.857 -212.312 674.478 -206.368 691.022 -198.826C702.559 -193.566 713.937 -187.332 725.111 -180.065C735.552 -173.275 745.585 -165.66 755.161 -157.186C757.289 -155.438 759.426 -153.399 761.518 -151.077C795.952 -112.898 815.23 -65.3031 820.809 -17.1837C823.859 9.13508 822.726 35.9472 817.664 61.3129C825.496 62.4961 833.227 63.8777 840.847 65.4674C864.783 70.4588 887.514 77.4362 908.677 86.605C919.211 91.1659 929.516 96.3355 939.563 102.142C949.014 107.608 958.313 113.748 967.443 120.607C968.005 120.997 968.571 121.404 969.14 121.839C973.743 125.338 978.288 129.025 982.764 132.895C987.322 136.835 991.748 140.908 996.027 145.107L996.021 145.122C997.283 146.357 998.625 147.675 999.651 148.724C1001.33 150.437 1003.08 152.263 1004.74 154.068L1004.71 154.133L1005.37 154.856L1005.51 154.93L1011.02 160.954L1011.41 161.635L1011.78 162.073L1012.47 162.88L1012.5 162.914L1012.51 162.929L1012.52 162.947L1012.61 163.046L1012.64 163.08L1012.66 163.116L1012.69 163.144L1012.69 163.15L1012.72 163.182L1012.75 163.216L1012.77 163.249L1012.8 163.283L1012.83 163.316L1012.86 163.35L1012.87 163.36L1012.88 163.384L1012.91 163.417L1012.94 163.451L1012.96 163.484L1012.99 163.518L1013.02 163.552L1013.1 163.651L1013.13 163.684L1013.16 163.718L1013.18 163.752L1013.21 163.785L1013.22 163.792C1013.82 164.507 1014.41 165.226 1015 165.945L1015.08 166.046L1015.17 166.148L1015.18 166.163L1015.25 166.249L1015.33 166.35L1015.35 166.378L1015.41 166.449L1015.49 166.55L1015.53 166.596L1015.58 166.649C1016.57 167.864 1017.44 168.948 1018.16 169.881L1018.16 169.887C1019.62 171.757 1021.05 173.629 1022.44 175.512C1025.11 179.131 1027.74 182.907 1030.29 186.787C1031.23 188.073 1032.13 189.407 1032.99 190.79L1033.18 191.092C1034.09 192.558 1033.65 191.855 1033.17 191.096L1033.15 191.108L1033.18 191.176C1034.3 192.797 1035.06 194.062 1035.71 195.181C1036.03 195.699 1036.36 196.249 1036.71 196.845L1036.82 197.04L1036.81 197.045L1039.08 201.348C1061.93 248.296 1068.59 296.626 1064.42 343.417C1061.31 378.425 1052.15 413.049 1039.39 445.66L1040.73 446.045C1058.77 451.263 1076.06 457.886 1092.47 466.041C1107.23 473.388 1120.11 481.322 1131.35 489.546C1143.39 498.363 1153.95 507.77 1163.19 517.358L1163.41 517.544C1165.98 520.238 1168.17 522.603 1170 524.657C1172.11 527.027 1174.22 529.502 1176.35 532.091L1176.5 532.32C1190.21 549.132 1199.74 565.407 1206.47 579.509L1206.66 579.903L1206.77 580.141L1206.84 580.295L1207.03 580.688L1207.06 580.768L1207.21 581.078L1207.36 581.393L1207.39 581.467L1207.57 581.854L1207.65 582.013L1207.75 582.24L1207.93 582.626L1207.93 582.632L1208.1 583.009L1208.21 583.246L1208.28 583.393L1208.45 583.773L1208.49 583.858L1208.62 584.153L1208.76 584.467L1208.79 584.532L1208.96 584.908L1209.03 585.069L1209.13 585.282L1209.29 585.656L1209.3 585.668L1209.46 586.027L1209.56 586.263L1209.62 586.399L1209.78 586.768L1209.81 586.857L1209.94 587.134L1210.07 587.441L1210.09 587.498L1210.25 587.861L1210.32 588.021L1210.4 588.222L1210.56 588.58L1210.56 588.598L1210.71 588.939L1210.81 589.17L1210.86 589.294L1211.01 589.651L1211.04 589.74L1211.15 590.002L1211.28 590.304L1211.3 590.355L1211.45 590.707L1211.51 590.866L1211.59 591.055L1211.73 591.4L1211.74 591.421L1211.88 591.745L1211.97 591.974L1212.02 592.091L1212.16 592.433L1212.19 592.526L1212.29 592.776L1212.41 593.071L1212.43 593.114L1212.62 593.61L1212.69 593.785L1212.83 594.121L1212.84 594.145L1212.96 594.454L1213.05 594.679L1213.09 594.784L1213.22 595.113L1213.25 595.207L1213.34 595.442L1213.84 596.738L1213.85 596.767L1213.96 597.056L1214.04 597.277L1214.08 597.373L1214.19 597.687L1214.23 597.781L1214.31 598.002L1214.41 598.282L1214.42 598.314L1214.54 598.622L1214.59 598.779L1214.65 598.933L1214.76 599.242L1214.77 599.273L1214.87 599.545L1214.95 599.76L1214.98 599.848L1215.09 600.15L1215.13 600.243L1215.2 600.45L1215.3 600.723L1215.31 600.748L1215.41 601.044L1215.46 601.198L1215.52 601.339L1215.62 601.632C1216.67 604.106 1217.54 606.607 1218.19 609.085C1218.29 609.487 1218.34 609.648 1218.62 610.645C1218.73 611.059 1218.85 611.496 1219.22 612.913L1219.22 612.936C1219.43 613.543 1219.07 612.261 1219.37 613.296C1219.66 614.327 1219.22 612.867 1219.81 615.055L1219.96 615.644L1219.99 615.655L1220.08 616.024L1220.05 616.011L1220.34 617.184L1220.2 616.542L1220.82 619.075C1228.98 657.627 1225.84 697.315 1216.01 735.257C1207.77 767.043 1194.75 798.08 1179.86 826.24C1188.38 831.89 1196.33 838.133 1203.68 844.943C1227.64 867.172 1244.61 893.866 1253.84 924.339C1258.82 940.789 1252.63 950.978 1240.02 947.093C1227.41 943.21 1213.15 926.722 1208.17 910.272C1205.43 901.226 1200.45 893.359 1193.46 886.874C1184.36 878.435 1172.13 871.122 1156.98 865.11C1147.23 879.752 1136.81 893.877 1125.82 907.452C1112.96 923.343 1098.76 939.091 1083.47 954.575L1083.48 954.586L1083.28 954.792L1083.22 954.832C1082.93 955.132 1083.83 954.216 1082.07 956.177L1081.52 956.718L1080.74 957.472L1080.68 957.403C1079.53 958.558 1077.53 960.531 1074.5 963.497C1068.67 969.214 1069.93 968.1 1068.16 969.786L1068.16 969.794C1036.55 1000.02 1001.7 1027.72 965.614 1052.26C927.157 1078.41 888.101 1100.42 850.73 1117.65L850.675 1117.64L850.714 1117.62L850.706 1117.61L850.639 1117.63L850.538 1117.61L849.019 1118.29L849.035 1118.31L849.084 1118.39C848.163 1118.81 848.484 1118.67 849.084 1118.39L849.035 1118.31L847.645 1118.93L847.679 1118.98C847.407 1119.11 847.355 1119.1 846.286 1119.56C844.596 1120.3 845.794 1119.82 845.181 1120.07L845.15 1120.02C796.307 1142.04 749.909 1156.34 710.954 1161.44C669.672 1166.84 634.149 1161.6 609.16 1144.14L608.331 1143.54C607.724 1143.09 606.632 1142.24 605.562 1141.4C605.477 1141.33 605.757 1141.56 605.223 1141.16L602.415 1139.06L599.382 1136.02L599.367 1136.01L598.619 1135.25L598.603 1135.24L597.863 1134.48L597.848 1134.47L597.117 1133.71L597.1 1133.69L596.376 1132.93L596.361 1132.91L595.647 1132.15L595.634 1132.13L594.929 1131.36L594.912 1131.34L594.215 1130.58L594.2 1130.56L593.512 1129.79L593.498 1129.77L592.817 1129L592.803 1128.98L592.132 1128.2L592.117 1128.19L591.452 1127.41L591.438 1127.39L590.783 1126.61L590.769 1126.59L590.12 1125.81L590.105 1125.79L589.466 1125.01L589.452 1124.99L588.82 1124.2L588.806 1124.19L588.184 1123.4L588.17 1123.38L587.556 1122.59L587.542 1122.57L586.936 1121.78L586.922 1121.76L586.323 1120.97L586.309 1120.95L585.719 1120.15L585.705 1120.13L585.122 1119.34L585.108 1119.32L584.536 1118.52L584.521 1118.5L583.955 1117.69L583.943 1117.67L583.387 1116.87L583.375 1116.85L582.826 1116.04L582.812 1116.02L582.271 1115.21L581.724 1114.38L581.712 1114.36L581.189 1113.55L581.178 1113.53L580.662 1112.71L580.65 1112.69L580.143 1111.87L580.132 1111.85L579.632 1111.03L579.62 1111.01L579.128 1110.19L579.116 1110.17L578.632 1109.35C577.974 1108.22 577.34 1107.09 576.724 1105.95L576.713 1105.93L576.268 1105.1L576.256 1105.08L575.818 1104.24L575.807 1104.22L575.378 1103.38L575.366 1103.36L574.945 1102.52L574.933 1102.5L574.519 1101.65C571.432 1095.31 568.992 1088.79 567.18 1082.14C562.982 1066.74 562.888 1051.64 566.421 1037.04L566.419 1037.03ZM1022.89 201.445L1022.43 201.62L1023.36 201.329L1027.81 199.875L1022.89 201.445ZM729.314 118.371C727.316 118.503 725.311 118.643 723.306 118.798C699.23 120.618 674.585 123.819 649.683 128.238C628.594 131.981 607.446 136.575 586.424 141.924C565.372 147.284 543.95 153.576 522.38 160.691C509.863 164.815 496.764 169.457 483.163 174.574C468.649 180.037 455.683 185.189 444.255 190.031C380.881 216.946 322.657 249.328 275.453 284.012C230.391 317.122 195.46 352.212 175.872 386.455C168.495 399.332 163.4 411.975 160.897 424.202C159.351 431.765 158.854 438.847 159.496 445.366C172.634 454.386 208.942 453.471 258.317 444.588C320.502 433.403 396.658 405.021 471.342 362.667C498.273 347.395 524.883 330.405 550.436 311.86C552.013 310.723 553.694 309.495 555.424 308.216L560.388 304.529C605.262 270.881 647.093 231.956 681.934 188.546C699.896 166.168 715.876 142.731 729.314 118.371ZM1033.18 191.066L1032.99 190.763L1032.96 190.774L1033.15 191.078L1033.18 191.066ZM1032.99 190.763C1032.58 190.111 1032.27 189.635 1032.96 190.774L1032.99 190.763ZM942.265 491.916C939.303 491.969 936.334 492.049 933.351 492.152C906.402 493.088 878.327 496.131 849.648 500.976C832.575 503.872 809.2 509.66 785.66 516.082C740.641 528.363 696.341 542.529 692.809 543.69L687.959 546.49L686.935 545.977C613.035 573.945 543.84 610.198 488.065 649.251C432.382 688.24 389.963 729.923 369.603 768.743C363.323 780.7 358.843 792.84 357.604 804.64C357.144 809.026 357.091 813.04 357.547 816.557C379.798 831.612 422.403 831.867 476.091 820.449C544.92 805.813 626.852 769.693 706.079 718.197C731.912 701.406 757.211 683.145 781.623 663.576C805.442 644.478 828.24 624.256 849.675 603.073C875.182 577.866 899.072 550.896 920.571 522.446C928.137 512.433 935.378 502.252 942.266 491.912L942.265 491.916ZM613.066 1096.02C627.119 1102.94 650.294 1104.1 679.653 1100.26C717.265 1095.34 761.845 1081.62 808.57 1060.52L808.853 1060.33C810.108 1059.82 808.543 1060.52 809.619 1060.05C810.073 1059.86 809.18 1060.23 810.058 1059.79L810.479 1059.67L811.989 1059L811.97 1058.97L812.516 1058.73L811.965 1058.96L811.927 1058.9L810.995 1059.35C810.803 1059.42 810.977 1059.33 811.923 1058.89C812.964 1058.42 812.523 1058.62 811.927 1058.9L811.965 1058.96C811.548 1059.13 811.152 1059.29 810.995 1059.35C810.725 1059.49 810.834 1059.47 811.97 1058.97L811.989 1059C813.749 1058.22 813.303 1058.41 812.516 1058.73L813.626 1058.24L813.567 1058.15C850.957 1040.92 889.244 1019.43 926.061 994.389C960.64 970.876 994.631 943.764 1026.22 913.56L1026.28 913.52C1032.39 907.689 1030.92 909.209 1032.6 907.564C1033.6 906.589 1035.72 904.47 1038.76 901.425L1038.91 901.158L1039.28 900.803C1039.89 900.131 1039.84 900.319 1041.04 899.103L1041.04 899.092L1041.24 898.889L1041.29 898.848C1055.42 884.535 1069.17 869.215 1082.36 852.914C1083.2 851.877 1084.04 850.838 1084.87 849.799C1083.86 849.727 1082.85 849.656 1081.83 849.594C1075.74 849.195 1070.08 848.974 1064.8 848.913C1058.41 848.837 1052.57 848.896 1047.22 849.075C1032.84 849.574 1017.52 850.976 1001.45 853.196C985.557 855.396 969.367 858.428 953.046 862.218L952.856 862.184L952.057 862.357L952.081 862.404C952.63 862.311 953.26 862.193 952.091 862.422L952.063 862.407L952.081 862.404L952.057 862.357L951.998 862.373L951.954 862.349L951.878 862.363L951.896 862.394C951.487 862.486 951.486 862.498 951.653 862.478L950.962 862.642C948.698 863.181 951.428 862.49 948.874 863.117L948.759 863.195C944.035 864.262 943.507 864.392 942.984 864.524L942.917 864.54C923.995 869.264 904.993 874.96 886.175 881.474C866.629 888.238 847.614 895.732 829.388 903.796L829.446 903.89C827.229 904.917 829.713 903.702 827.894 904.48C827.017 904.854 829.7 903.706 826.947 904.989L826.905 904.922C826.653 905.049 826.483 905.124 826.326 905.193L826.311 905.167L826.243 905.195C770.275 930.255 719.365 961.43 681.01 993.88C645.315 1024.08 621.001 1054.78 614.511 1081.75C613.145 1087.39 612.63 1092.19 613.061 1096.03L613.066 1096.02ZM789.7 845.644L789.773 845.613L789.832 845.571L789.7 845.644ZM789.816 845.543L790.393 845.209L789.782 845.49L789.816 845.543ZM917.492 801.956C917.574 801.935 917.632 801.924 917.492 801.956V801.956ZM951.901 862.383L951.913 862.403L951.656 862.464L952.066 862.398L951.999 862.361L951.901 862.383ZM918.911 801.688L919.493 801.572L919.481 801.552L918.911 801.688ZM117.474 443.794C117.575 444.054 117.639 444.206 117.486 443.795L117.474 443.794ZM1220.07 616.008L1220.2 616.529L1220.09 616.014L1219.98 615.64L1219.95 615.629L1220.04 615.995L1220.07 616.008ZM850.022 1117.94L850.68 1117.62L850.641 1117.61L849.107 1118.27C849.739 1118.01 850.515 1117.7 850.022 1117.94ZM850.716 1117.61C850.786 1117.57 850.791 1117.56 850.707 1117.59L850.716 1117.61ZM849.021 1118.27C848.038 1118.71 848.45 1118.54 849.037 1118.3L849.021 1118.27Z" fill="white"/>
</g>
<defs>
<filter id="filter0_d_1256_24727" x="-99.6464" y="-352.338" width="1484.5" height="1649.11" filterUnits="userSpaceOnUse" color-interpolation-filters="sRGB">
<feFlood flood-opacity="0" result="BackgroundImageFix"/>
<feColorMatrix in="SourceAlpha" type="matrix" values="0 0 0 0 0 0 0 0 0 0 0 0 0 0 0 0 0 0 127 0" result="hardAlpha"/>
<feOffset dy="4"/>
<feGaussianBlur stdDeviation="64.65"/>
<feComposite in2="hardAlpha" operator="out"/>
<feColorMatrix type="matrix" values="0 0 0 0 1 0 0 0 0 0.55625 0 0 0 0 0.260417 0 0 0 1 0"/>
<feBlend mode="normal" in2="BackgroundImageFix" result="effect1_dropShadow_1256_24727"/>
<feBlend mode="normal" in="SourceGraphic" in2="effect1_dropShadow_1256_24727" result="shape"/>
</filter>
</defs>
</svg>
