<svg width="296" height="244" viewBox="0 0 296 244" fill="none" xmlns="http://www.w3.org/2000/svg">
<g opacity="0.02" filter="url(#filter0_d_1520_29528)">
<path d="M76.1596 447.957C76.1866 447.842 76.2169 447.729 76.2492 447.619C80.7029 429.657 95.6835 410.285 117.36 391.946C139.373 373.322 168.595 355.417 200.753 340.985C200.883 340.915 200.995 340.863 201.103 340.815L201.288 340.708L201.271 340.678L201.632 340.509L201.613 340.52C202.059 340.322 201.319 340.699 202.145 340.345C202.697 340.109 200.97 340.849 202.672 340.062L202.778 340.081C213.554 335.313 224.502 330.982 235.449 327.192C246.217 323.466 257.172 320.186 268.17 317.441L268.207 317.432C270.123 316.949 271.231 316.648 271.635 316.557L271.649 316.581L272.805 316.292C272.73 316.306 272.618 316.332 272.804 316.289L273.334 316.163L273.602 316.142C273.554 316.153 273.553 316.155 273.631 316.14L273.931 316.085L273.926 316.077L274.053 316.051L274.045 316.036L273.918 316.067L273.902 316.036L274.107 315.996C283.464 313.828 292.868 312.071 302.234 310.777C311.036 309.56 320.066 308.77 329.26 308.45C333.091 308.321 336.599 308.271 339.727 308.308C343.479 308.353 346.95 308.474 350.098 308.68C357.819 309.162 365.075 310.048 371.853 311.304C376.927 312.244 381.851 313.413 386.614 314.797C397.528 296.656 407.53 275.414 413.178 253.628C417.719 236.104 419.402 218.599 416.278 202.816L416.207 202.556L416.044 201.9L416.038 201.897C415.335 199.596 414.246 196.264 412.513 192.634L412.439 192.48L412.364 192.324L412.362 192.321L412.289 192.168L412.286 192.164L412.212 192.012L412.208 192.006L412.134 191.855L412.129 191.847L412.054 191.698L412.049 191.69L411.974 191.541L411.967 191.53L411.893 191.382L411.885 191.37L411.811 191.222L411.802 191.208L411.728 191.06L411.719 191.046L411.644 190.901L411.634 190.883L411.548 190.719L411.473 190.575L411.462 190.555L411.386 190.412L411.373 190.39L411.298 190.249L411.284 190.225L411.209 190.084L411.194 190.058L411.118 189.92L411.102 189.891L411.027 189.754L411.01 189.724L410.933 189.588L410.915 189.556L410.839 189.422L410.82 189.389L410.745 189.254L410.724 189.219L410.648 189.087L410.627 189.051L410.551 188.919L410.529 188.881L410.454 188.75L410.431 188.711L410.356 188.582L410.332 188.539L410.258 188.412L410.233 188.367L410.158 188.241L410.131 188.195L410.057 188.07L410.027 188.022L409.954 187.899L409.924 187.848L409.85 187.726L409.818 187.674L409.744 187.554L409.711 187.501L409.638 187.382L409.604 187.326L409.529 187.207L409.493 187.15L409.42 187.033L409.382 186.975L409.309 186.86L409.27 186.8L409.197 186.687L409.156 186.624L409.084 186.513L409.042 186.448L408.969 186.338L408.927 186.271L408.855 186.162L408.81 186.095L408.739 185.987L408.692 185.917L408.621 185.812L408.573 185.74L408.503 185.636L408.453 185.561L408.383 185.458L408.331 185.382L408.261 185.28L408.208 185.203L408.139 185.102L408.083 185.023L408.015 184.924L407.958 184.843L407.891 184.746L407.833 184.663L407.765 184.568L407.705 184.482L407.638 184.389L407.576 184.303L407.51 184.211L407.446 184.121L407.381 184.031L407.315 183.94L407.25 183.853L407.181 183.759L407.117 183.671L407.046 183.576L406.984 183.491L406.911 183.394L406.847 183.31L406.771 183.211L406.709 183.129L406.631 183.027L406.571 182.948L406.492 182.845L406.431 182.766L406.35 182.662L406.291 182.586L406.208 182.479L406.15 182.403L406.063 182.294L406.005 182.219L405.918 182.108L405.862 182.037L405.771 181.924L405.716 181.854L405.622 181.739L405.566 181.672L405.559 181.682C405.086 181.105 404.537 180.467 403.908 179.76C403.121 178.875 402.458 178.151 401.924 177.591L401.928 177.578C399.265 174.831 396.014 171.975 392.041 169.068C387.561 165.79 382.41 162.616 376.485 159.669C368.928 155.911 360.859 152.831 352.363 150.372C344.612 148.129 336.45 146.397 327.951 145.133C319.731 160.521 310.004 175.499 299.097 189.934C286.94 206.023 273.197 221.501 258.349 236.175C246.014 248.366 232.974 259.935 219.425 270.801C205.649 281.847 191.241 292.235 176.408 301.876C130.932 331.435 83.7677 352.198 44.0318 360.647C2.97382 369.378 -32.4009 364.13 -53.7567 341.348L-55.5775 339.405L-55.8829 338.964C-57.6185 336.9 -59.2129 334.551 -60.5346 332.018C-60.7426 331.621 -60.9449 331.223 -61.1412 330.828L-61.1561 330.798L-61.1579 330.795C-61.4045 330.317 -61.6369 329.84 -61.856 329.365C-67.5882 317.332 -69.316 306.049 -68.2075 295.502C-67.245 286.322 -64.0783 277.485 -59.6916 269.136C-47.488 245.87 -22.5324 221.212 10.0441 198.405C42.9282 175.38 83.5079 154.189 126.425 138.216C126.895 137.985 127.426 137.791 128.093 137.721C134.385 135.688 157.28 128.421 179.799 122.279C193.165 118.633 206.603 115.319 216.794 113.59C233.077 110.839 249.386 109.098 265.475 108.539C279.305 108.057 292.791 108.472 305.756 109.896C316.988 87.3393 325.476 62.3688 327.685 37.5265C329.405 18.2029 327.381 -0.531859 319.805 -17.006L319.547 -17.4205C319.06 -18.1649 318.541 -18.9271 317.994 -19.7049L317.992 -19.7081L317.963 -19.7482L317.951 -19.7648L317.933 -19.7884L317.908 -19.8247L317.905 -19.8295L317.876 -19.8696L317.12 -20.902L317.077 -20.966C316.791 -21.3542 316.669 -21.5252 316.617 -21.601L316.611 -21.6122L316.605 -21.6217C316.334 -21.9844 316.063 -22.3364 315.795 -22.6821L315.705 -22.7613C315.052 -23.6009 314.668 -24.0867 314.511 -24.2737C314.125 -24.7356 313.814 -25.1024 313.564 -25.3882L313.549 -25.4055L313.543 -25.4125L313.534 -25.4218L313.519 -25.439L313.506 -25.4546L313.492 -25.4719L313.479 -25.4875L313.465 -25.5032L313.452 -25.5189L313.439 -25.5344L313.427 -25.5485L313.413 -25.5642L313.401 -25.5782L313.389 -25.5923L313.223 -25.7788L310.493 -28.517L310.266 -28.9096L309.826 -29.3484L309.708 -29.4539C308.271 -30.8643 306.799 -32.2182 305.303 -33.514C303.739 -34.8656 302.106 -36.1883 300.413 -37.4761C300.137 -37.6855 299.866 -37.9019 299.595 -38.1247C296.252 -40.6215 292.601 -43.0066 288.67 -45.2783C284.425 -47.7333 279.896 -49.9924 275.112 -52.0639C264.781 -56.5382 253.683 -59.9446 241.99 -62.3843C230.696 -64.7406 218.801 -66.2187 206.461 -66.9052C196.723 -41.7276 182.508 -18.2668 165.272 3.2106C145.413 27.9545 121.297 50.3437 95.2619 69.8679C94.4679 70.4577 93.6196 71.0894 92.4173 71.9764C91.5093 72.6447 90.5673 73.3348 89.5589 74.0611C74.8328 84.7481 59.6579 94.4481 44.4302 103.085C1.5375 127.408 -42.3664 143.739 -78.3446 150.211C-118.561 157.446 -151.986 150.648 -168.696 127.647C-170.104 125.709 -171.394 123.711 -172.559 121.657L-172.541 121.65C-172.704 121.365 -172.852 121.097 -172.991 120.842L-173.982 119.126L-175.301 115.692C-175.394 115.45 -175.549 115.049 -175.301 115.692L-175.295 115.692L-176.191 113.327C-176.881 111.702 -177.424 110.062 -177.785 108.45C-179.914 98.9478 -179.927 89.5462 -178.037 80.3172C-176.297 71.8197 -172.874 63.2359 -167.964 54.6667C-156.221 34.1399 -135.628 13.3584 -109.225 -6.04091C-82.1191 -25.9562 -48.8404 -44.4852 -12.74 -59.8159C-4.69783 -63.2214 2.71424 -66.206 9.43567 -68.7346C16.44 -71.3693 23.9012 -73.9965 31.8085 -76.6016C43.6688 -80.5142 55.9284 -84.0957 68.4908 -87.2926C80.5841 -90.3712 92.7027 -93.0046 104.735 -95.1407C118.981 -97.6695 133.216 -99.5115 147.276 -100.574C159.481 -101.497 171.525 -101.82 183.294 -101.486C190.724 -118.982 193.582 -139.179 191.356 -158.379C189.594 -173.582 184.69 -187.484 176.396 -197.283C173.385 -199.874 170.154 -202.285 166.719 -204.519C162.47 -207.281 157.776 -209.822 152.682 -212.143C144.866 -215.706 136.587 -218.502 127.952 -220.595C118.674 -222.844 108.878 -224.325 98.6998 -225.109C92.931 -225.564 87.3605 -225.8 81.989 -225.83C76.6992 -225.86 70.8132 -225.674 64.3941 -225.282C57.74 -224.878 51.3956 -224.294 45.3617 -223.544C38.7137 -222.717 32.1605 -221.707 25.7149 -220.523L25.6823 -220.502C25.1891 -220.414 23.6789 -220.123 21.3677 -219.67C19.7201 -219.348 18.5344 -219.113 17.7203 -218.948L16.9156 -218.778C-12.856 -212.573 -42.6097 -202.672 -70.0672 -190.479C-98.7055 -177.759 -124.899 -162.545 -146.07 -146.418C-147.158 -145.591 -148.635 -144.421 -150.098 -143.26L-151.006 -142.541C-157.847 -137.07 -164.088 -131.519 -169.625 -125.947C-174.845 -120.693 -179.541 -115.254 -183.629 -109.673C-187.918 -103.819 -191.279 -98.0385 -193.581 -92.4247C-195.202 -88.4732 -196.267 -84.7028 -196.724 -81.1588C-191.818 -79.9008 -179.105 -81.0256 -161.701 -83.9618C-135.959 -88.3069 -104.342 -99.7162 -73.6341 -116.712C-58.2496 -125.232 -43.1382 -135.116 -29.1585 -146.179C-20.7039 -152.87 -12.6455 -160.008 -5.16716 -167.551C-5.61504 -167.477 -6.06771 -167.4 -6.52652 -167.315C-15.8155 -165.606 -18.8869 -174.557 -19.8417 -179.791C-21.3251 -187.924 -13.3025 -189.483 -7.5333 -190.545C7.56158 -193.322 27.6288 -193.731 35.4075 -191.647C38.1532 -190.909 40.5303 -189.438 42.5331 -187.426C44.4265 -185.313 45.7609 -182.858 46.337 -180.076C47.9685 -172.198 46.3956 -152.211 42.7418 -137.319C41.3468 -131.629 39.3232 -123.719 31.2812 -125.671C26.6217 -126.802 19.0514 -129.82 19.2275 -137.095C11.2621 -128.998 2.63972 -121.339 -6.42401 -114.165C-20.9035 -102.705 -36.4633 -92.5199 -52.2388 -83.7828C-84.0184 -66.1935 -116.86 -54.3656 -143.694 -49.8369C-174.359 -44.6632 -200.364 -50.6966 -214.051 -69.7898C-217.926 -75.1863 -220.418 -80.338 -222.095 -85.6867C-223.202 -89.22 -223.808 -92.3627 -224.219 -95.5732C-224.433 -96.8122 -224.529 -98.0091 -224.484 -99.1348C-224.214 -106.045 -222.601 -112.969 -219.79 -119.826C-217.08 -126.432 -213.211 -133.116 -208.324 -139.786C-204.203 -145.409 -199.134 -151.233 -193.222 -157.183C-187.408 -163.032 -180.875 -168.846 -173.733 -174.557L-172.826 -175.276C-171.579 -176.265 -170.323 -177.261 -168.609 -178.565C-146.872 -195.121 -120.011 -210.727 -90.671 -223.759C-62.6612 -236.199 -32.4395 -246.294 -2.29665 -252.643L-2.27912 -252.653L-1.48081 -252.82C0.762006 -253.288 2.34511 -253.615 3.02111 -253.747C3.68067 -253.878 5.14046 -254.142 7.61394 -254.583L7.6222 -254.568C14.5545 -255.841 21.3504 -256.898 27.9782 -257.719C34.9673 -258.588 41.5758 -259.219 47.7579 -259.594C53.5146 -259.945 59.7035 -260.106 66.3383 -260.069C72.6287 -260.033 78.5812 -259.801 84.1605 -259.363C95.2311 -258.509 106.044 -256.858 116.477 -254.331C126.816 -251.826 136.686 -248.497 145.953 -244.272C152.415 -241.326 158.788 -237.834 165.047 -233.764C170.895 -229.961 176.515 -225.695 181.878 -220.949C183.071 -219.969 184.268 -218.827 185.439 -217.527C204.726 -196.142 215.525 -169.483 218.649 -142.53C220.358 -127.788 219.723 -112.77 216.888 -98.5623C221.275 -97.8996 225.605 -97.1257 229.873 -96.2353C243.28 -93.4395 256.012 -89.5313 267.866 -84.3956C273.767 -81.8409 279.539 -78.9453 285.166 -75.6929C290.46 -72.6315 295.669 -69.1921 300.782 -65.3505C301.098 -65.132 301.414 -64.9037 301.733 -64.66C304.311 -62.7005 306.857 -60.6354 309.364 -58.4677C311.917 -56.2608 314.396 -53.9794 316.793 -51.6273L316.79 -51.6188C317.497 -50.9273 318.248 -50.1891 318.823 -49.6014C319.764 -48.642 320.745 -47.6192 321.673 -46.6081L321.654 -46.5715L322.028 -46.1665L322.103 -46.125L325.19 -42.7512L325.41 -42.3698L325.62 -42.1243L326.004 -41.6722L326.019 -41.6534L326.026 -41.6447L326.034 -41.6346L326.081 -41.579L326.096 -41.5602L326.112 -41.5398L326.125 -41.5241L326.127 -41.5209L326.144 -41.503L326.159 -41.4842L326.174 -41.4654L326.189 -41.4466L326.204 -41.4278L326.219 -41.409L326.225 -41.4035L326.235 -41.3901L326.25 -41.3713L326.265 -41.3525L326.28 -41.3337L326.295 -41.3149L326.31 -41.2961L326.357 -41.2405L326.372 -41.2217L326.387 -41.2028L326.402 -41.184L326.418 -41.1652L326.422 -41.1613C326.759 -40.7607 327.09 -40.358 327.42 -39.9553L327.465 -39.8988L327.513 -39.8418L327.52 -39.8331L327.558 -39.7852L327.604 -39.7288L327.617 -39.7132L327.651 -39.6732L327.696 -39.6168L327.717 -39.5909L327.743 -39.5612C328.3 -38.8803 328.786 -38.2732 329.192 -37.7509L329.19 -37.7474C330.011 -36.7001 330.808 -35.6514 331.587 -34.5965C333.082 -32.5694 334.554 -30.4544 335.987 -28.2811C336.509 -27.5611 337.013 -26.8136 337.496 -26.0393L337.602 -25.8697C338.115 -25.0487 337.868 -25.4425 337.599 -25.8679L337.584 -25.8612L337.606 -25.8231C338.232 -24.9152 338.656 -24.2064 339.02 -23.5795C339.2 -23.2894 339.387 -22.9816 339.579 -22.6478L339.643 -22.5382L339.638 -22.5354L340.91 -20.1253C353.705 6.17147 357.437 33.2419 355.103 59.4509C353.359 79.0597 348.229 98.4531 341.081 116.719L341.834 116.935C351.935 119.858 361.622 123.567 370.811 128.135C379.081 132.251 386.293 136.695 392.589 141.301C399.337 146.24 405.249 151.509 410.427 156.879L410.547 156.984C411.99 158.492 413.215 159.817 414.239 160.968C415.42 162.295 416.605 163.682 417.796 165.132L417.883 165.259C425.559 174.676 430.897 183.792 434.665 191.691L434.771 191.912L434.833 192.045L434.875 192.132L434.978 192.352L435 192.397L435.081 192.57L435.164 192.747L435.183 192.788L435.285 193.005L435.326 193.094L435.384 193.221L435.484 193.437L435.485 193.441L435.582 193.652L435.642 193.785L435.679 193.867L435.776 194.08L435.797 194.127L435.874 194.293L435.952 194.468L435.969 194.505L436.062 194.716L436.102 194.806L436.156 194.925L436.247 195.135L436.251 195.141L436.339 195.342L436.396 195.474L436.43 195.551L436.519 195.757L436.54 195.807L436.608 195.963L436.682 196.134L436.696 196.166L436.784 196.37L436.823 196.459L436.871 196.572L436.957 196.772L436.961 196.783L437.041 196.974L437.096 197.103L437.126 197.172L437.21 197.372L437.23 197.422L437.291 197.569L437.361 197.738L437.374 197.767L437.455 197.964L437.492 198.053L437.536 198.158L437.616 198.352L437.621 198.364L437.696 198.545L437.749 198.674L437.775 198.739L437.854 198.93L437.874 198.983L437.929 199.123L437.995 199.288L438.004 199.312L438.114 199.59L438.154 199.688L438.228 199.876L438.234 199.889L438.302 200.062L438.351 200.188L438.374 200.247L438.447 200.432L438.467 200.484L438.517 200.616L438.794 201.342L438.799 201.358L438.861 201.52L438.907 201.644L438.927 201.697L438.993 201.874L439.012 201.926L439.058 202.05L439.117 202.207L439.123 202.224L439.187 202.397L439.218 202.485L439.249 202.571L439.313 202.744L439.319 202.762L439.374 202.914L439.419 203.035L439.436 203.084L439.496 203.253L439.515 203.305L439.557 203.421L439.611 203.574L439.617 203.588L439.674 203.754L439.705 203.84L439.734 203.919L439.79 204.083C440.382 205.469 440.87 206.869 441.23 208.258C441.287 208.483 441.318 208.573 441.471 209.131C441.535 209.364 441.599 209.608 441.807 210.402L441.81 210.415C441.926 210.755 441.723 210.037 441.89 210.616C442.054 211.194 441.811 210.376 442.14 211.601L442.222 211.931L442.241 211.937L442.29 212.144L442.273 212.137L442.438 212.794L442.36 212.434L442.707 213.853C447.274 235.447 445.518 257.677 440.01 278.929C435.394 296.733 428.102 314.118 419.763 329.891C424.536 333.056 428.988 336.553 433.102 340.367C446.524 352.818 456.032 367.77 461.198 384.839C463.987 394.053 460.522 399.76 453.46 397.584C446.395 395.409 438.408 386.174 435.619 376.96C434.085 371.893 431.296 367.486 427.38 363.854C422.285 359.127 415.435 355.031 406.945 351.663C401.487 359.864 395.649 367.776 389.494 375.38C382.287 384.281 374.336 393.102 365.774 401.774L365.778 401.781L365.666 401.896L365.634 401.919C365.468 402.087 365.975 401.574 364.99 402.672L364.682 402.975L364.24 403.397L364.212 403.359C363.565 404.005 362.444 405.11 360.748 406.772C357.481 409.974 358.187 409.35 357.194 410.295L357.197 410.299C339.493 427.228 319.971 442.745 299.758 456.488C278.217 471.135 256.341 483.468 235.409 493.117L235.378 493.111L235.4 493.101L235.395 493.093L235.358 493.106L235.301 493.096L234.45 493.473L234.46 493.489L234.487 493.532C233.971 493.769 234.151 493.686 234.487 493.532L234.46 493.489L233.681 493.833L233.7 493.862C233.548 493.937 233.518 493.926 232.92 494.189C231.973 494.602 232.644 494.333 232.301 494.475L232.283 494.444C204.926 506.777 178.937 514.79 157.117 517.644C133.994 520.668 114.097 517.736 100.1 507.953L99.6358 507.617C99.2956 507.367 98.6841 506.889 98.0848 506.421C98.0372 506.383 98.1936 506.507 97.8946 506.283L96.3217 505.108L94.623 503.406L94.6144 503.398L94.1956 502.975L94.1869 502.967L93.7722 502.543L93.7636 502.535L93.3546 502.11L93.345 502.101L92.9392 501.674L92.9311 501.664L92.5311 501.236L92.5239 501.227L92.1286 500.796L92.119 500.787L91.7287 500.358L91.7207 500.347L91.3352 499.915L91.3271 499.905L90.9458 499.473L90.9377 499.462L90.5621 499.029L90.5539 499.018L90.1814 498.583L90.1735 498.573L89.8067 498.136L89.7986 498.126L89.4349 497.687L89.427 497.677L89.069 497.237L89.061 497.227L88.7071 496.787L88.6992 496.777L88.351 496.336L88.343 496.326L87.9989 495.885L87.9909 495.874L87.6517 495.43L87.6436 495.42L87.3085 494.976L87.3005 494.965L86.9701 494.518L86.9621 494.508L86.6358 494.061L86.6277 494.051L86.3072 493.602L86.2992 493.592L85.9818 493.141L85.9754 493.13L85.6638 492.679L85.6573 492.668L85.3497 492.216L85.3416 492.206L85.0388 491.751L84.7322 491.286L84.7257 491.275L84.4327 490.819L84.4263 490.808L84.1374 490.352L84.131 490.34L83.8469 489.881L83.8404 489.87L83.5604 489.411L83.554 489.4L83.2781 488.94L83.2716 488.929L83.0005 488.467C82.6321 487.836 82.2768 487.202 81.9318 486.565L81.9254 486.553L81.6762 486.085L81.6698 486.074L81.4245 485.605L81.4181 485.594L81.1778 485.122L81.1714 485.111L80.9351 484.639L80.9286 484.628L80.6964 484.156C78.9676 480.602 77.6006 476.954 76.5857 473.228C74.2345 464.6 74.182 456.145 76.161 447.967L76.1596 447.957ZM331.842 -20.0713L331.58 -19.973L332.105 -20.1358L334.598 -20.9502L331.842 -20.0713ZM167.401 -66.6027C166.282 -66.5286 165.159 -66.4503 164.036 -66.3637C150.55 -65.344 136.746 -63.5513 122.798 -61.0761C110.985 -58.9796 99.1399 -56.4065 87.3647 -53.4099C75.5734 -50.4081 63.5741 -46.8836 51.4923 -42.8983C44.4812 -40.5882 37.1444 -37.9883 29.526 -35.1219C21.3967 -32.0623 14.1337 -29.1765 7.73286 -26.4643C-27.7647 -11.3884 -60.377 6.74951 -86.8169 26.1766C-112.057 44.7226 -131.623 64.3768 -142.595 83.5575C-146.727 90.7704 -149.581 97.8518 -150.983 104.701C-151.849 108.937 -152.127 112.903 -151.768 116.555C-144.408 121.607 -124.071 121.095 -96.4153 116.119C-61.584 109.854 -18.9273 93.9568 22.9051 70.233C37.9894 61.6787 52.8942 52.1622 67.2072 41.7752C68.0906 41.138 69.032 40.4504 70.0014 39.7339L72.7818 37.6688C97.9165 18.8215 121.347 -2.98124 140.863 -27.2962C150.923 -39.8308 159.874 -52.9583 167.401 -66.6027ZM337.602 -25.8846L337.496 -26.0541L337.482 -26.0483L337.587 -25.8778L337.602 -25.8846ZM337.496 -26.0541C337.266 -26.4193 337.093 -26.686 337.482 -26.0483L337.496 -26.0541ZM286.68 142.629C285.021 142.658 283.358 142.703 281.687 142.761C266.592 143.285 250.867 144.99 234.803 147.703C225.24 149.325 212.147 152.568 198.962 156.164C173.745 163.043 148.932 170.978 146.954 171.629L144.237 173.197L143.663 172.91C102.271 188.575 63.5129 208.881 32.272 230.756C1.08252 252.594 -22.6777 275.942 -34.0813 297.686C-37.5992 304.383 -40.1085 311.183 -40.8025 317.793C-41.0604 320.249 -41.09 322.498 -40.8345 324.467C-28.3709 332.9 -4.50714 333.043 25.5646 326.648C64.1175 318.45 110.01 298.218 154.386 269.374C168.856 259.969 183.027 249.74 196.7 238.779C210.042 228.082 222.812 216.755 234.818 204.89C249.105 190.771 262.486 175.665 274.529 159.729C278.766 154.121 282.822 148.418 286.681 142.626L286.68 142.629ZM102.288 481C110.159 484.875 123.14 485.526 139.585 483.377C160.652 480.622 185.622 472.934 211.794 461.119L211.952 461.011C212.655 460.724 211.779 461.119 212.381 460.856C212.636 460.745 212.136 460.954 212.627 460.708L212.863 460.642L213.709 460.268L213.698 460.249L214.004 460.116L213.696 460.244L213.675 460.211L213.152 460.462C213.045 460.501 213.143 460.449 213.672 460.207C214.255 459.94 214.008 460.053 213.675 460.211L213.696 460.244C213.462 460.34 213.24 460.43 213.152 460.462C213.001 460.539 213.062 460.527 213.698 460.249L213.709 460.268C214.695 459.83 214.445 459.934 214.004 460.116L214.626 459.842L214.593 459.789C235.536 450.137 256.981 438.099 277.603 424.076C296.972 410.905 316.011 395.719 333.705 378.801L333.736 378.779C337.162 375.513 336.336 376.364 337.279 375.443C337.836 374.896 339.025 373.71 340.728 372.004L340.811 371.854L341.019 371.656C341.363 371.279 341.335 371.385 342.008 370.704L342.004 370.697L342.117 370.583L342.149 370.561C350.063 362.544 357.762 353.962 365.152 344.832C365.622 344.251 366.091 343.669 366.556 343.087C365.991 343.047 365.424 343.007 364.853 342.972C361.445 342.749 358.271 342.625 355.313 342.591C351.735 342.549 348.463 342.581 345.466 342.682C337.414 342.961 328.83 343.747 319.831 344.99C310.929 346.222 301.861 347.921 292.719 350.043L292.612 350.024L292.165 350.121L292.178 350.148C292.485 350.095 292.838 350.029 292.183 350.157L292.168 350.149L292.178 350.148L292.165 350.121L292.131 350.13L292.107 350.117L292.064 350.124L292.074 350.142C291.845 350.194 291.845 350.2 291.938 350.189L291.551 350.281C290.283 350.583 291.812 350.196 290.382 350.547L290.317 350.59C287.671 351.188 287.376 351.261 287.083 351.335L287.045 351.344C276.446 353.99 265.803 357.181 255.263 360.829C244.314 364.618 233.664 368.815 223.455 373.332L223.487 373.385C222.245 373.96 223.637 373.28 222.618 373.715C222.127 373.925 223.63 373.282 222.088 374L222.064 373.963C221.923 374.034 221.828 374.076 221.739 374.114L221.731 374.1L221.693 374.116C190.344 388.153 161.828 405.614 140.345 423.791C120.351 440.706 106.733 457.899 103.097 473.007C102.332 476.168 102.044 478.858 102.285 481.006L102.288 481ZM201.224 340.76L201.265 340.742L201.299 340.719L201.224 340.76ZM201.289 340.703L201.613 340.516L201.27 340.674L201.289 340.703ZM272.804 316.289C272.85 316.277 272.882 316.271 272.804 316.289V316.289ZM292.077 350.136L292.084 350.147L291.94 350.181L292.169 350.144L292.132 350.124L292.077 350.136ZM273.599 316.139L273.924 316.074L273.918 316.063L273.599 316.139ZM-175.305 115.675C-175.249 115.82 -175.212 115.905 -175.298 115.675L-175.305 115.675ZM442.287 212.135L442.358 212.427L442.296 212.139L442.236 211.929L442.218 211.923L442.27 212.128L442.287 212.135ZM235.012 493.28L235.381 493.101L235.359 493.097L234.5 493.463C234.854 493.318 235.289 493.144 235.012 493.28ZM235.401 493.092C235.44 493.071 235.443 493.065 235.396 493.084L235.401 493.092ZM234.452 493.464C233.901 493.71 234.132 493.617 234.461 493.48L234.452 493.464Z" fill="white"/>
</g>
<defs>
<filter id="filter0_d_1520_29528" x="-353.795" y="-385.375" width="945.257" height="1037.46" filterUnits="userSpaceOnUse" color-interpolation-filters="sRGB">
<feFlood flood-opacity="0" result="BackgroundImageFix"/>
<feColorMatrix in="SourceAlpha" type="matrix" values="0 0 0 0 0 0 0 0 0 0 0 0 0 0 0 0 0 0 127 0" result="hardAlpha"/>
<feOffset dy="4"/>
<feGaussianBlur stdDeviation="64.65"/>
<feComposite in2="hardAlpha" operator="out"/>
<feColorMatrix type="matrix" values="0 0 0 0 1 0 0 0 0 0.55625 0 0 0 0 0.260417 0 0 0 1 0"/>
<feBlend mode="normal" in2="BackgroundImageFix" result="effect1_dropShadow_1520_29528"/>
<feBlend mode="normal" in="SourceGraphic" in2="effect1_dropShadow_1520_29528" result="shape"/>
</filter>
</defs>
</svg>
