<svg width="296" height="503" viewBox="0 0 296 503" fill="none" xmlns="http://www.w3.org/2000/svg">
<g opacity="0.02" filter="url(#filter0_d_1380_29001)">
<path d="M76.1596 576.957C76.1866 576.842 76.2169 576.729 76.2492 576.619C80.7029 558.657 95.6835 539.285 117.36 520.946C139.373 502.322 168.595 484.417 200.753 469.985C200.883 469.915 200.995 469.863 201.103 469.815L201.288 469.708L201.271 469.678L201.632 469.509L201.613 469.52C202.059 469.322 201.319 469.699 202.145 469.345C202.697 469.109 200.97 469.849 202.672 469.062L202.778 469.081C213.554 464.313 224.502 459.982 235.449 456.192C246.217 452.466 257.172 449.186 268.17 446.441L268.207 446.432C270.123 445.949 271.231 445.648 271.635 445.557L271.649 445.581L272.805 445.292C272.73 445.306 272.618 445.332 272.804 445.289L273.334 445.163L273.602 445.142C273.554 445.153 273.553 445.155 273.631 445.14L273.931 445.085L273.926 445.077L274.053 445.051L274.045 445.036L273.918 445.067L273.902 445.036L274.107 444.996C283.464 442.828 292.868 441.071 302.234 439.777C311.036 438.56 320.066 437.77 329.26 437.45C333.091 437.321 336.599 437.271 339.727 437.308C343.479 437.353 346.95 437.474 350.098 437.68C357.819 438.162 365.075 439.048 371.853 440.304C376.927 441.244 381.851 442.413 386.614 443.797C397.528 425.656 407.53 404.414 413.178 382.628C417.719 365.104 419.402 347.599 416.278 331.816L416.207 331.556L416.044 330.9L416.038 330.897C415.335 328.596 414.246 325.264 412.513 321.634L412.439 321.48L412.364 321.324L412.362 321.321L412.289 321.168L412.286 321.164L412.212 321.012L412.208 321.006L412.134 320.855L412.129 320.847L412.054 320.698L412.049 320.69L411.974 320.541L411.967 320.53L411.893 320.382L411.885 320.37L411.811 320.222L411.802 320.208L411.728 320.06L411.719 320.046L411.644 319.901L411.634 319.883L411.548 319.719L411.473 319.575L411.462 319.555L411.386 319.412L411.373 319.39L411.298 319.249L411.284 319.225L411.209 319.084L411.194 319.058L411.118 318.92L411.102 318.891L411.027 318.754L411.01 318.724L410.933 318.588L410.915 318.556L410.839 318.422L410.82 318.389L410.745 318.254L410.724 318.219L410.648 318.087L410.627 318.051L410.551 317.919L410.529 317.881L410.454 317.75L410.431 317.711L410.356 317.582L410.332 317.539L410.258 317.412L410.233 317.367L410.158 317.241L410.131 317.195L410.057 317.07L410.027 317.022L409.954 316.899L409.924 316.848L409.85 316.726L409.818 316.674L409.744 316.554L409.711 316.501L409.638 316.382L409.604 316.326L409.529 316.207L409.493 316.15L409.42 316.033L409.382 315.975L409.309 315.86L409.27 315.8L409.197 315.687L409.156 315.624L409.084 315.513L409.042 315.448L408.969 315.338L408.927 315.271L408.855 315.162L408.81 315.095L408.739 314.987L408.692 314.917L408.621 314.812L408.573 314.74L408.503 314.636L408.453 314.561L408.383 314.458L408.331 314.382L408.261 314.28L408.208 314.203L408.139 314.102L408.083 314.023L408.015 313.924L407.958 313.843L407.891 313.746L407.833 313.663L407.765 313.568L407.705 313.482L407.638 313.389L407.576 313.303L407.51 313.211L407.446 313.121L407.381 313.031L407.315 312.94L407.25 312.853L407.181 312.759L407.117 312.671L407.046 312.576L406.984 312.491L406.911 312.394L406.847 312.31L406.771 312.211L406.709 312.129L406.631 312.027L406.571 311.948L406.492 311.845L406.431 311.766L406.35 311.662L406.291 311.586L406.208 311.479L406.15 311.403L406.063 311.294L406.005 311.219L405.918 311.108L405.862 311.037L405.771 310.924L405.716 310.854L405.622 310.739L405.566 310.672L405.559 310.682C405.086 310.105 404.537 309.467 403.908 308.76C403.121 307.875 402.458 307.151 401.924 306.591L401.928 306.578C399.265 303.831 396.014 300.975 392.041 298.068C387.561 294.79 382.41 291.616 376.485 288.669C368.928 284.911 360.859 281.831 352.363 279.372C344.612 277.129 336.45 275.397 327.951 274.133C319.731 289.521 310.004 304.499 299.097 318.934C286.94 335.023 273.197 350.501 258.349 365.175C246.014 377.366 232.974 388.935 219.425 399.801C205.649 410.847 191.241 421.235 176.408 430.876C130.932 460.435 83.7677 481.198 44.0318 489.647C2.97382 498.378 -32.4009 493.13 -53.7567 470.348L-55.5775 468.405L-55.8829 467.964C-57.6185 465.9 -59.2129 463.551 -60.5346 461.018C-60.7426 460.621 -60.9449 460.223 -61.1412 459.828L-61.1561 459.798L-61.1579 459.795C-61.4045 459.317 -61.6369 458.84 -61.856 458.365C-67.5882 446.332 -69.316 435.049 -68.2075 424.502C-67.245 415.322 -64.0783 406.485 -59.6916 398.136C-47.488 374.87 -22.5324 350.212 10.0441 327.405C42.9282 304.38 83.5079 283.189 126.425 267.216C126.895 266.985 127.426 266.791 128.093 266.721C134.385 264.688 157.28 257.421 179.799 251.279C193.165 247.633 206.603 244.319 216.794 242.59C233.077 239.839 249.386 238.098 265.475 237.539C279.305 237.057 292.791 237.472 305.756 238.896C316.988 216.339 325.476 191.369 327.685 166.527C329.405 147.203 327.381 128.468 319.805 111.994L319.547 111.58C319.06 110.835 318.541 110.073 317.994 109.295L317.992 109.292L317.963 109.252L317.951 109.235L317.933 109.212L317.908 109.175L317.905 109.171L317.876 109.13L317.12 108.098L317.077 108.034C316.791 107.646 316.669 107.475 316.617 107.399L316.611 107.388L316.605 107.378C316.334 107.016 316.063 106.664 315.795 106.318L315.705 106.239C315.052 105.399 314.668 104.913 314.511 104.726C314.125 104.264 313.814 103.898 313.564 103.612L313.549 103.595L313.543 103.588L313.534 103.578L313.519 103.561L313.506 103.545L313.492 103.528L313.479 103.513L313.465 103.497L313.452 103.481L313.439 103.466L313.427 103.451L313.413 103.436L313.401 103.422L313.389 103.408L313.223 103.221L310.493 100.483L310.266 100.09L309.826 99.6516L309.708 99.5461C308.271 98.1357 306.799 96.7818 305.303 95.486C303.739 94.1344 302.106 92.8117 300.413 91.5239C300.137 91.3145 299.866 91.0981 299.595 90.8753C296.252 88.3785 292.601 85.9934 288.67 83.7217C284.425 81.2667 279.896 79.0076 275.112 76.9361C264.781 72.4618 253.683 69.0554 241.99 66.6157C230.696 64.2594 218.801 62.7813 206.461 62.0948C196.723 87.2724 182.508 110.733 165.272 132.211C145.413 156.955 121.297 179.344 95.2619 198.868C94.4679 199.458 93.6196 200.089 92.4173 200.976C91.5093 201.645 90.5673 202.335 89.5589 203.061C74.8328 213.748 59.6579 223.448 44.4302 232.085C1.5375 256.408 -42.3664 272.739 -78.3446 279.211C-118.561 286.446 -151.986 279.648 -168.696 256.647C-170.104 254.709 -171.394 252.711 -172.559 250.657L-172.541 250.65C-172.704 250.365 -172.852 250.097 -172.991 249.842L-173.982 248.126L-175.301 244.692C-175.394 244.45 -175.549 244.049 -175.301 244.692L-175.295 244.692L-176.191 242.327C-176.881 240.702 -177.424 239.062 -177.785 237.45C-179.914 227.948 -179.927 218.546 -178.037 209.317C-176.297 200.82 -172.874 192.236 -167.964 183.667C-156.221 163.14 -135.628 142.358 -109.225 122.959C-82.1191 103.044 -48.8404 84.5148 -12.74 69.1841C-4.69783 65.7786 2.71424 62.794 9.43567 60.2654C16.44 57.6307 23.9012 55.0035 31.8085 52.3984C43.6688 48.4858 55.9284 44.9043 68.4908 41.7074C80.5841 38.6288 92.7027 35.9954 104.735 33.8593C118.981 31.3305 133.216 29.4885 147.276 28.4255C159.481 27.5029 171.525 27.1801 183.294 27.514C190.724 10.018 193.582 -10.1788 191.356 -29.3792C189.594 -44.5817 184.69 -58.4835 176.396 -68.283C173.385 -70.8742 170.154 -73.2849 166.719 -75.5186C162.47 -78.281 157.776 -80.8221 152.682 -83.1429C144.866 -86.7061 136.587 -89.5022 127.952 -91.5946C118.674 -93.8436 108.878 -95.3255 98.6998 -96.1094C92.931 -96.5636 87.3605 -96.7995 81.989 -96.8304C76.6992 -96.8596 70.8132 -96.674 64.3941 -96.2822C57.74 -95.8778 51.3956 -95.294 45.3617 -94.544C38.7137 -93.717 32.1605 -92.7075 25.7149 -91.5227L25.6823 -91.5018C25.1891 -91.4141 23.6789 -91.1229 21.3677 -90.67C19.7201 -90.3482 18.5344 -90.1129 17.7203 -89.948L16.9156 -89.778C-12.856 -83.5728 -42.6097 -73.6717 -70.0672 -61.4788C-98.7055 -48.7589 -124.899 -33.545 -146.07 -17.4184C-147.158 -16.591 -148.635 -15.4207 -150.098 -14.2603L-151.006 -13.541C-157.847 -8.06973 -164.088 -2.51917 -169.625 3.05349C-174.845 8.30734 -179.541 13.7455 -183.629 19.3268C-187.918 25.1811 -191.279 30.9615 -193.581 36.5753C-195.202 40.5268 -196.267 44.2972 -196.724 47.8412C-191.818 49.0992 -179.105 47.9744 -161.701 45.0382C-135.959 40.6931 -104.342 29.2838 -73.6341 12.288C-58.2496 3.76813 -43.1382 -6.11557 -29.1585 -17.179C-20.7039 -23.87 -12.6455 -31.0083 -5.16716 -38.5513C-5.61504 -38.477 -6.06771 -38.4001 -6.52652 -38.3153C-15.8155 -36.6057 -18.8869 -45.5574 -19.8417 -50.7914C-21.3251 -58.9244 -13.3025 -60.4834 -7.5333 -61.5447C7.56158 -64.3219 27.6288 -64.7313 35.4075 -62.6467C38.1532 -61.9093 40.5303 -60.4378 42.5331 -58.426C44.4265 -56.313 45.7609 -53.8581 46.337 -51.0756C47.9685 -43.1976 46.3956 -23.2109 42.7418 -8.3187C41.3468 -2.62864 39.3232 5.28066 31.2812 3.32892C26.6217 2.19828 19.0514 -0.82042 19.2275 -8.09542C11.2621 0.00214949 2.63972 7.66097 -6.42401 14.8351C-20.9035 26.2951 -36.4633 36.4801 -52.2388 45.2172C-84.0184 62.8065 -116.86 74.6344 -143.694 79.1631C-174.359 84.3368 -200.364 78.3034 -214.051 59.2102C-217.926 53.8137 -220.418 48.662 -222.095 43.3133C-223.202 39.78 -223.808 36.6373 -224.219 33.4268C-224.433 32.1878 -224.529 30.9909 -224.484 29.8652C-224.214 22.9555 -222.601 16.0313 -219.79 9.17379C-217.08 2.56764 -213.211 -4.11581 -208.324 -10.7857C-204.203 -16.4093 -199.134 -22.2331 -193.222 -28.1832C-187.408 -34.0319 -180.875 -39.8463 -173.733 -45.5572L-172.826 -46.2756C-171.579 -47.2649 -170.323 -48.2613 -168.609 -49.5645C-146.872 -66.1214 -120.011 -81.7274 -90.671 -94.7591C-62.6612 -107.199 -32.4395 -117.294 -2.29665 -123.643L-2.27912 -123.653L-1.48081 -123.82C0.762006 -124.288 2.34511 -124.615 3.02111 -124.747C3.68067 -124.878 5.14046 -125.142 7.61394 -125.583L7.6222 -125.568C14.5545 -126.841 21.3504 -127.898 27.9782 -128.719C34.9673 -129.588 41.5758 -130.219 47.7579 -130.594C53.5146 -130.945 59.7035 -131.106 66.3383 -131.069C72.6287 -131.033 78.5812 -130.801 84.1605 -130.363C95.2311 -129.509 106.044 -127.858 116.477 -125.331C126.816 -122.826 136.686 -119.497 145.953 -115.272C152.415 -112.326 158.788 -108.834 165.047 -104.764C170.895 -100.961 176.515 -96.6949 181.878 -91.9488C183.071 -90.9694 184.268 -89.8273 185.439 -88.5266C204.726 -67.1417 215.525 -40.4829 218.649 -13.5301C220.358 1.21168 219.723 16.2297 216.888 30.4377C221.275 31.1004 225.605 31.8743 229.873 32.7647C243.28 35.5605 256.012 39.4687 267.866 44.6044C273.767 47.1591 279.539 50.0547 285.166 53.3071C290.46 56.3685 295.669 59.8079 300.782 63.6495C301.098 63.868 301.414 64.0963 301.733 64.34C304.311 66.2995 306.857 68.3646 309.364 70.5323C311.917 72.7392 314.396 75.0206 316.793 77.3727L316.79 77.3812C317.497 78.0727 318.248 78.8109 318.823 79.3986C319.764 80.358 320.745 81.3808 321.673 82.3919L321.654 82.4285L322.028 82.8335L322.103 82.875L325.19 86.2488L325.41 86.6302L325.62 86.8757L326.004 87.3278L326.019 87.3466L326.026 87.3553L326.034 87.3654L326.081 87.421L326.096 87.4398L326.112 87.4602L326.125 87.4759L326.127 87.4791L326.144 87.497L326.159 87.5158L326.174 87.5346L326.189 87.5534L326.204 87.5722L326.219 87.591L326.225 87.5965L326.235 87.6099L326.25 87.6287L326.265 87.6475L326.28 87.6663L326.295 87.6851L326.31 87.7039L326.357 87.7595L326.372 87.7783L326.387 87.7972L326.402 87.816L326.418 87.8348L326.422 87.8387C326.759 88.2393 327.09 88.642 327.42 89.0447L327.465 89.1012L327.513 89.1582L327.52 89.1669L327.558 89.2148L327.604 89.2712L327.617 89.2868L327.651 89.3268L327.696 89.3832L327.717 89.4091L327.743 89.4388C328.3 90.1197 328.786 90.7268 329.192 91.2491L329.19 91.2526C330.011 92.2999 330.808 93.3486 331.587 94.4035C333.082 96.4306 334.554 98.5456 335.987 100.719C336.509 101.439 337.013 102.186 337.496 102.961L337.602 103.13C338.115 103.951 337.868 103.557 337.599 103.132L337.584 103.139L337.606 103.177C338.232 104.085 338.656 104.794 339.02 105.42C339.2 105.711 339.387 106.018 339.579 106.352L339.643 106.462L339.638 106.465L340.91 108.875C353.705 135.171 357.437 162.242 355.103 188.451C353.359 208.06 348.229 227.453 341.081 245.719L341.834 245.935C351.935 248.858 361.622 252.567 370.811 257.135C379.081 261.251 386.293 265.695 392.589 270.301C399.337 275.24 405.249 280.509 410.427 285.879L410.547 285.984C411.99 287.492 413.215 288.817 414.239 289.968C415.42 291.295 416.605 292.682 417.796 294.132L417.883 294.259C425.559 303.676 430.897 312.792 434.665 320.691L434.771 320.912L434.833 321.045L434.875 321.132L434.978 321.352L435 321.397L435.081 321.57L435.164 321.747L435.183 321.788L435.285 322.005L435.326 322.094L435.384 322.221L435.484 322.437L435.485 322.441L435.582 322.652L435.642 322.785L435.679 322.867L435.776 323.08L435.797 323.127L435.874 323.293L435.952 323.468L435.969 323.505L436.062 323.716L436.102 323.806L436.156 323.925L436.247 324.135L436.251 324.141L436.339 324.342L436.396 324.474L436.43 324.551L436.519 324.757L436.54 324.807L436.608 324.963L436.682 325.134L436.696 325.166L436.784 325.37L436.823 325.459L436.871 325.572L436.957 325.772L436.961 325.783L437.041 325.974L437.096 326.103L437.126 326.172L437.21 326.372L437.23 326.422L437.291 326.569L437.361 326.738L437.374 326.767L437.455 326.964L437.492 327.053L437.536 327.158L437.616 327.352L437.621 327.364L437.696 327.545L437.749 327.674L437.775 327.739L437.854 327.93L437.874 327.983L437.929 328.123L437.995 328.288L438.004 328.312L438.114 328.59L438.154 328.688L438.228 328.876L438.234 328.889L438.302 329.062L438.351 329.188L438.374 329.247L438.447 329.432L438.467 329.484L438.517 329.616L438.794 330.342L438.799 330.358L438.861 330.52L438.907 330.644L438.927 330.697L438.993 330.874L439.012 330.926L439.058 331.05L439.117 331.207L439.123 331.224L439.187 331.397L439.218 331.485L439.249 331.571L439.313 331.744L439.319 331.762L439.374 331.914L439.419 332.035L439.436 332.084L439.496 332.253L439.515 332.305L439.557 332.421L439.611 332.574L439.617 332.588L439.674 332.754L439.705 332.84L439.734 332.919L439.79 333.083C440.382 334.469 440.87 335.869 441.23 337.258C441.287 337.483 441.318 337.573 441.471 338.131C441.535 338.364 441.599 338.608 441.807 339.402L441.81 339.415C441.926 339.755 441.723 339.037 441.89 339.616C442.054 340.194 441.811 339.376 442.14 340.601L442.222 340.931L442.241 340.937L442.29 341.144L442.273 341.137L442.438 341.794L442.36 341.434L442.707 342.853C447.274 364.447 445.518 386.677 440.01 407.929C435.394 425.733 428.102 443.118 419.763 458.891C424.536 462.056 428.988 465.553 433.102 469.367C446.524 481.818 456.032 496.77 461.198 513.839C463.987 523.053 460.522 528.76 453.46 526.584C446.395 524.409 438.408 515.174 435.619 505.96C434.085 500.893 431.296 496.486 427.38 492.854C422.285 488.127 415.435 484.031 406.945 480.663C401.487 488.864 395.649 496.776 389.494 504.38C382.287 513.281 374.336 522.102 365.774 530.774L365.778 530.781L365.666 530.896L365.634 530.919C365.468 531.087 365.975 530.574 364.99 531.672L364.682 531.975L364.24 532.397L364.212 532.359C363.565 533.005 362.444 534.11 360.748 535.772C357.481 538.974 358.187 538.35 357.194 539.295L357.197 539.299C339.493 556.228 319.971 571.745 299.758 585.488C278.217 600.135 256.341 612.468 235.409 622.117L235.378 622.111L235.4 622.101L235.395 622.093L235.358 622.106L235.301 622.096L234.45 622.473L234.46 622.489L234.487 622.532C233.971 622.769 234.151 622.686 234.487 622.532L234.46 622.489L233.681 622.833L233.7 622.862C233.548 622.937 233.518 622.926 232.92 623.189C231.973 623.602 232.644 623.333 232.301 623.475L232.283 623.444C204.926 635.777 178.937 643.79 157.117 646.644C133.994 649.668 114.097 646.736 100.1 636.953L99.6358 636.617C99.2956 636.367 98.6841 635.889 98.0848 635.421C98.0372 635.383 98.1936 635.507 97.8946 635.283L96.3217 634.108L94.623 632.406L94.6144 632.398L94.1956 631.975L94.1869 631.967L93.7722 631.543L93.7636 631.535L93.3546 631.11L93.345 631.101L92.9392 630.674L92.9311 630.664L92.5311 630.236L92.5239 630.227L92.1286 629.796L92.119 629.787L91.7287 629.358L91.7207 629.347L91.3352 628.915L91.3271 628.905L90.9458 628.473L90.9377 628.462L90.5621 628.029L90.5539 628.018L90.1814 627.583L90.1735 627.573L89.8067 627.136L89.7986 627.126L89.4349 626.687L89.427 626.677L89.069 626.237L89.061 626.227L88.7071 625.787L88.6992 625.777L88.351 625.336L88.343 625.326L87.9989 624.885L87.9909 624.874L87.6517 624.43L87.6436 624.42L87.3085 623.976L87.3005 623.965L86.9701 623.518L86.9621 623.508L86.6358 623.061L86.6277 623.051L86.3072 622.602L86.2992 622.592L85.9818 622.141L85.9754 622.13L85.6638 621.679L85.6573 621.668L85.3497 621.216L85.3416 621.206L85.0388 620.751L84.7322 620.286L84.7257 620.275L84.4327 619.819L84.4263 619.808L84.1374 619.352L84.131 619.34L83.8469 618.881L83.8404 618.87L83.5604 618.411L83.554 618.4L83.2781 617.94L83.2716 617.929L83.0005 617.467C82.6321 616.836 82.2768 616.202 81.9318 615.565L81.9254 615.553L81.6762 615.085L81.6698 615.074L81.4245 614.605L81.4181 614.594L81.1778 614.122L81.1714 614.111L80.9351 613.639L80.9286 613.628L80.6964 613.156C78.9676 609.602 77.6006 605.954 76.5857 602.228C74.2345 593.6 74.182 585.145 76.161 576.967L76.1596 576.957ZM331.842 108.929L331.58 109.027L332.105 108.864L334.598 108.05L331.842 108.929ZM167.401 62.3973C166.282 62.4714 165.159 62.5497 164.036 62.6363C150.55 63.656 136.746 65.4487 122.798 67.9239C110.985 70.0204 99.1399 72.5935 87.3647 75.5901C75.5734 78.5919 63.5741 82.1164 51.4923 86.1017C44.4812 88.4118 37.1444 91.0117 29.526 93.8781C21.3967 96.9377 14.1337 99.8235 7.73286 102.536C-27.7647 117.612 -60.377 135.75 -86.8169 155.177C-112.057 173.723 -131.623 193.377 -142.595 212.558C-146.727 219.77 -149.581 226.852 -150.983 233.701C-151.849 237.937 -152.127 241.903 -151.768 245.555C-144.408 250.607 -124.071 250.095 -96.4153 245.119C-61.584 238.854 -18.9273 222.957 22.9051 199.233C37.9894 190.679 52.8942 181.162 67.2072 170.775C68.0906 170.138 69.032 169.45 70.0014 168.734L72.7818 166.669C97.9165 147.822 121.347 126.019 140.863 101.704C150.923 89.1692 159.874 76.0417 167.401 62.3973ZM337.602 103.115L337.496 102.946L337.482 102.952L337.587 103.122L337.602 103.115ZM337.496 102.946C337.266 102.581 337.093 102.314 337.482 102.952L337.496 102.946ZM286.68 271.629C285.021 271.658 283.358 271.703 281.687 271.761C266.592 272.285 250.867 273.99 234.803 276.703C225.24 278.325 212.147 281.568 198.962 285.164C173.745 292.043 148.932 299.978 146.954 300.629L144.237 302.197L143.663 301.91C102.271 317.575 63.5129 337.881 32.272 359.756C1.08252 381.594 -22.6777 404.942 -34.0813 426.686C-37.5992 433.383 -40.1085 440.183 -40.8025 446.793C-41.0604 449.249 -41.09 451.498 -40.8345 453.467C-28.3709 461.9 -4.50714 462.043 25.5646 455.648C64.1175 447.45 110.01 427.218 154.386 398.374C168.856 388.969 183.027 378.74 196.7 367.779C210.042 357.082 222.812 345.755 234.818 333.89C249.105 319.771 262.486 304.665 274.529 288.729C278.766 283.121 282.822 277.418 286.681 271.626L286.68 271.629ZM102.288 610C110.159 613.875 123.14 614.526 139.585 612.377C160.652 609.622 185.622 601.934 211.794 590.119L211.952 590.011C212.655 589.724 211.779 590.119 212.381 589.856C212.636 589.745 212.136 589.954 212.627 589.708L212.863 589.642L213.709 589.268L213.698 589.249L214.004 589.116L213.696 589.244L213.675 589.211L213.152 589.462C213.045 589.501 213.143 589.449 213.672 589.207C214.255 588.94 214.008 589.053 213.675 589.211L213.696 589.244C213.462 589.34 213.24 589.43 213.152 589.462C213.001 589.539 213.062 589.527 213.698 589.249L213.709 589.268C214.695 588.83 214.445 588.934 214.004 589.116L214.626 588.842L214.593 588.789C235.536 579.137 256.981 567.099 277.603 553.076C296.972 539.905 316.011 524.719 333.705 507.801L333.736 507.779C337.162 504.513 336.336 505.364 337.279 504.443C337.836 503.896 339.025 502.71 340.728 501.004L340.811 500.854L341.019 500.656C341.363 500.279 341.335 500.385 342.008 499.704L342.004 499.697L342.117 499.583L342.149 499.561C350.063 491.544 357.762 482.962 365.152 473.832C365.622 473.251 366.091 472.669 366.556 472.087C365.991 472.047 365.424 472.007 364.853 471.972C361.445 471.749 358.271 471.625 355.313 471.591C351.735 471.549 348.463 471.581 345.466 471.682C337.414 471.961 328.83 472.747 319.831 473.99C310.929 475.222 301.861 476.921 292.719 479.043L292.612 479.024L292.165 479.121L292.178 479.148C292.485 479.095 292.838 479.029 292.183 479.157L292.168 479.149L292.178 479.148L292.165 479.121L292.131 479.13L292.107 479.117L292.064 479.124L292.074 479.142C291.845 479.194 291.845 479.2 291.938 479.189L291.551 479.281C290.283 479.583 291.812 479.196 290.382 479.547L290.317 479.59C287.671 480.188 287.376 480.261 287.083 480.335L287.045 480.344C276.446 482.99 265.803 486.181 255.263 489.829C244.314 493.618 233.664 497.815 223.455 502.332L223.487 502.385C222.245 502.96 223.637 502.28 222.618 502.715C222.127 502.925 223.63 502.282 222.088 503L222.064 502.963C221.923 503.034 221.828 503.076 221.739 503.114L221.731 503.1L221.693 503.116C190.344 517.153 161.828 534.614 140.345 552.791C120.351 569.706 106.733 586.899 103.097 602.007C102.332 605.168 102.044 607.858 102.285 610.006L102.288 610ZM201.224 469.76L201.265 469.742L201.299 469.719L201.224 469.76ZM201.289 469.703L201.613 469.516L201.27 469.674L201.289 469.703ZM272.804 445.289C272.85 445.277 272.882 445.271 272.804 445.289V445.289ZM292.077 479.136L292.084 479.147L291.94 479.181L292.169 479.144L292.132 479.124L292.077 479.136ZM273.599 445.139L273.924 445.074L273.918 445.063L273.599 445.139ZM-175.305 244.675C-175.249 244.82 -175.212 244.905 -175.298 244.675L-175.305 244.675ZM442.287 341.135L442.358 341.427L442.296 341.139L442.236 340.929L442.218 340.923L442.27 341.128L442.287 341.135ZM235.012 622.28L235.381 622.101L235.359 622.097L234.5 622.463C234.854 622.318 235.289 622.144 235.012 622.28ZM235.401 622.092C235.44 622.071 235.443 622.065 235.396 622.084L235.401 622.092ZM234.452 622.464C233.901 622.71 234.132 622.617 234.461 622.48L234.452 622.464Z" fill="white"/>
</g>
<defs>
<filter id="filter0_d_1380_29001" x="-353.795" y="-256.374" width="945.257" height="1037.46" filterUnits="userSpaceOnUse" color-interpolation-filters="sRGB">
<feFlood flood-opacity="0" result="BackgroundImageFix"/>
<feColorMatrix in="SourceAlpha" type="matrix" values="0 0 0 0 0 0 0 0 0 0 0 0 0 0 0 0 0 0 127 0" result="hardAlpha"/>
<feOffset dy="4"/>
<feGaussianBlur stdDeviation="64.65"/>
<feComposite in2="hardAlpha" operator="out"/>
<feColorMatrix type="matrix" values="0 0 0 0 1 0 0 0 0 0.55625 0 0 0 0 0.260417 0 0 0 1 0"/>
<feBlend mode="normal" in2="BackgroundImageFix" result="effect1_dropShadow_1380_29001"/>
<feBlend mode="normal" in="SourceGraphic" in2="effect1_dropShadow_1380_29001" result="shape"/>
</filter>
</defs>
</svg>
