<svg width="20" height="26" viewBox="0 0 20 26" fill="none" xmlns="http://www.w3.org/2000/svg">
<path opacity="0.4" fill-rule="evenodd" clip-rule="evenodd" d="M11.0805 10.58C10.7988 10.8489 10.4168 11 10.0185 11C9.62014 11 9.23812 10.8489 8.95642 10.58L0.458599 2.46603C0.315126 2.33372 0.200685 2.17545 0.12196 2.00045C0.0432319 1.82546 0.00179284 1.63725 5.90646e-05 1.4468C-0.0016728 1.25635 0.036333 1.06747 0.111864 0.8912C0.187395 0.714926 0.298939 0.554779 0.439981 0.420106C0.581026 0.285433 0.748745 0.178929 0.933357 0.106809C1.11797 0.03469 1.31578 -0.00160074 1.51523 5.42224e-05C1.71469 0.00170919 1.91181 0.0412771 2.09508 0.116449C2.27835 0.191621 2.44411 0.300891 2.58268 0.437884L10.0185 7.53783L17.4542 0.437885C17.7376 0.17661 18.117 0.0320374 18.5109 0.0353054C18.9047 0.0385734 19.2815 0.18942 19.56 0.455357C19.8385 0.721294 19.9965 1.08104 19.9999 1.45712C20.0034 1.8332 19.852 2.19551 19.5783 2.46603L11.0805 10.58Z" fill="#FF6600"/>
<path fill-rule="evenodd" clip-rule="evenodd" d="M11.0805 25.58C10.7988 25.8489 10.4168 26 10.0185 26C9.62014 26 9.23812 25.8489 8.95642 25.58L0.458599 17.466C0.315126 17.3337 0.200685 17.1754 0.12196 17.0005C0.0432319 16.8255 0.00179284 16.6372 5.90646e-05 16.4468C-0.0016728 16.2563 0.036333 16.0675 0.111864 15.8912C0.187395 15.7149 0.298939 15.5548 0.439981 15.4201C0.581026 15.2854 0.748745 15.1789 0.933357 15.1068C1.11797 15.0347 1.31578 14.9984 1.51523 15.0001C1.71469 15.0017 1.91181 15.0413 2.09508 15.1164C2.27835 15.1916 2.44411 15.3009 2.58268 15.4379L10.0185 22.5378L17.4542 15.4379C17.7376 15.1766 18.117 15.032 18.5109 15.0353C18.9047 15.0386 19.2815 15.1894 19.56 15.4554C19.8385 15.7213 19.9965 16.081 19.9999 16.4571C20.0034 16.8332 19.852 17.1955 19.5783 17.466L11.0805 25.58Z" fill="#FF6600"/>
</svg>
