<svg width="71" height="24" viewBox="0 0 71 24" fill="none" xmlns="http://www.w3.org/2000/svg">
<path d="M36.6943 5.56025C37.3051 5.81009 37.8339 6.18471 38.2695 6.6865L38.2701 6.686C38.7165 7.17844 39.0458 7.74497 39.2635 8.38529C39.4798 9.02149 39.5851 9.72759 39.5851 10.5037C39.5851 11.3074 39.4802 12.0406 39.2677 12.7079C39.0541 13.3788 38.7322 13.9812 38.2994 14.5198L38.2978 14.5214C37.8607 15.0556 37.3327 15.4569 36.7168 15.7254C36.1389 15.9773 35.4874 16.1107 34.7647 16.1255H34.7643C34.7192 16.1264 34.6738 16.1269 34.6281 16.1269C34.5781 16.1269 34.5288 16.1264 34.4799 16.1255H28.129C28.129 11.3753 28.129 6.62517 28.129 1.875H31.5109V6.37984C31.5937 6.29736 31.6786 6.21955 31.7653 6.14598C31.9835 5.96075 32.2126 5.80297 32.447 5.665L32.4502 5.6635C33.0177 5.34292 33.7365 5.18263 34.6066 5.18263C35.3771 5.18263 36.0767 5.30763 36.6942 5.5602L36.6943 5.56025ZM34.7676 13.3737C35.0323 13.2526 35.2592 13.0692 35.4528 12.8215C35.652 12.5665 35.8017 12.2715 35.9015 11.9369C36.0027 11.5973 36.0534 11.214 36.0534 10.7871C36.0534 10.4431 36.0286 10.1328 35.9816 9.85394C35.9333 9.56781 35.8615 9.31241 35.7691 9.0855C35.5832 8.68205 35.3265 8.38256 34.9967 8.18503C34.663 7.98506 34.2482 7.88611 33.7499 7.88611C33.2508 7.88611 32.83 7.98523 32.4903 8.18125C32.1546 8.37499 31.8925 8.66651 31.7068 9.05332C31.6074 9.27283 31.5321 9.52601 31.4813 9.81058C31.4296 10.0992 31.4038 10.4193 31.4038 10.7683C31.4038 11.1798 31.458 11.5534 31.5617 11.8868C31.6667 12.2248 31.8232 12.5246 32.0258 12.7838L32.0274 12.7861C32.2202 13.0413 32.4612 13.2327 32.7553 13.3604C33.0555 13.4907 33.4141 13.5559 33.8357 13.5559C34.1914 13.5559 34.5005 13.4959 34.7676 13.3737H34.7676ZM51.4435 12.785C51.196 13.4371 50.8251 14.0325 50.3281 14.5685L50.3278 14.5682C49.8233 15.1218 49.1918 15.5364 48.4305 15.8121C47.6767 16.0849 46.7968 16.2213 45.7881 16.2213C44.7901 16.2213 43.9155 16.0849 43.1646 15.8121C42.4059 15.5363 41.7743 15.1217 41.2699 14.5682L41.2696 14.5685C40.7697 14.0292 40.3918 13.4301 40.139 12.7738C39.8874 12.1209 39.7603 11.4137 39.7603 10.6548C39.7603 9.9053 39.8874 9.20292 40.139 8.55003C40.3913 7.89501 40.7689 7.2917 41.2688 6.7426C41.7734 6.18849 42.4054 5.77342 43.1646 5.49753C43.9155 5.22465 44.7901 5.08818 45.7881 5.08818C46.7969 5.08818 47.6768 5.22465 48.4305 5.49753C49.1924 5.77342 49.8244 6.18849 50.3289 6.7426C50.8258 7.28825 51.1964 7.88778 51.4435 8.53862C51.6928 9.19542 51.8161 9.90163 51.8161 10.6547C51.8161 11.4173 51.6928 12.1282 51.4435 12.7849V12.785ZM46.8452 13.4204C47.1493 13.2934 47.4096 13.103 47.6257 12.8516L47.6281 12.8492C47.8428 12.6081 48.005 12.3038 48.1147 11.9432C48.2277 11.5713 48.2842 11.1395 48.2842 10.6548C48.2842 10.1702 48.2279 9.73872 48.1152 9.36499C48.0055 9.00117 47.8423 8.691 47.6257 8.43911C47.4093 8.19645 47.148 8.01056 46.842 7.88561C46.5373 7.76139 46.186 7.69705 45.7881 7.69705C45.3798 7.69705 45.0235 7.76111 44.7169 7.88483C44.408 8.0095 44.1462 8.19573 43.929 8.439C43.7126 8.69101 43.5494 9.00117 43.4397 9.36499C43.327 9.73878 43.2706 10.1703 43.2706 10.6548C43.2706 11.1395 43.3271 11.5712 43.4403 11.9432C43.5499 12.3038 43.7121 12.6081 43.9268 12.8492L43.9292 12.8516C44.1446 13.1022 44.4031 13.292 44.7072 13.4186H44.708C45.0167 13.5471 45.3759 13.6125 45.7881 13.6125C46.1877 13.6125 46.5401 13.5478 46.8452 13.4204ZM63.6745 12.7849C63.4269 13.4372 63.056 14.0325 62.5591 14.5685L62.5587 14.5682C62.0544 15.1218 61.4227 15.5364 60.6614 15.8121C59.9077 16.0849 59.0277 16.2213 58.0191 16.2213C57.0211 16.2213 56.1464 16.0849 55.3955 15.812C54.6368 15.5363 54.0052 15.1216 53.5009 14.5682L53.5006 14.5685C53.0006 14.0292 52.6227 13.4301 52.3699 12.7738C52.1183 12.1209 51.9912 11.4137 51.9912 10.6548C51.9912 9.9053 52.1184 9.20287 52.3699 8.55003C52.6223 7.89501 52.9999 7.29165 53.4998 6.7426C54.0043 6.18849 54.6363 5.77347 55.3955 5.49753C56.1464 5.22471 57.0211 5.08818 58.0191 5.08818C59.0278 5.08818 59.9077 5.22471 60.6615 5.49759C61.4234 5.77347 62.0554 6.18855 62.5599 6.7426C63.0568 7.28825 63.4274 7.88784 63.6745 8.53868C63.9238 9.19547 64.047 9.90168 64.047 10.6547C64.047 11.4173 63.9238 12.1282 63.6745 12.7849V12.7849ZM59.076 13.4204C59.3803 13.2934 59.6406 13.103 59.8567 12.8516L59.859 12.8492C60.0737 12.6081 60.2359 12.3038 60.3456 11.9432C60.4587 11.5712 60.5152 11.1395 60.5152 10.6548C60.5152 10.1703 60.4588 9.73878 60.3461 9.36499C60.2364 9.00123 60.0732 8.691 59.8567 8.43911C59.6402 8.19645 59.3789 8.0105 59.0729 7.88561C58.7682 7.76139 58.417 7.69705 58.0191 7.69705C57.6107 7.69705 57.2544 7.76111 56.9478 7.88483C56.639 8.0095 56.3772 8.19573 56.1599 8.439C55.9435 8.69101 55.7803 9.00117 55.6706 9.36499C55.5579 9.73878 55.5016 10.1703 55.5016 10.6548C55.5016 11.1395 55.5581 11.5712 55.6712 11.9432C55.7809 12.3038 55.943 12.6081 56.1577 12.8492L56.1601 12.8516C56.3755 13.1022 56.6341 13.2919 56.9382 13.4186H56.939C57.2476 13.5471 57.6068 13.6125 58.0191 13.6125C58.4187 13.6125 58.7711 13.5478 59.076 13.4204ZM63.8099 5.27869H65.1924V2.6878H68.5528V5.27869H70.4161V7.54733H68.5528V12.8851C68.5528 13.6166 68.8033 13.6158 69.4728 13.6136C69.6339 13.613 69.4841 13.6125 69.614 13.6125C69.6976 13.6125 69.7594 13.6114 69.816 13.6089C69.8734 13.6064 69.9477 13.6015 70.0494 13.5943L70.317 13.5755L69.8012 15.9671L68.808 15.9937C68.0895 16.0225 67.4819 15.9794 66.9854 15.8691C66.4636 15.7531 66.0598 15.5617 65.7741 15.3001L65.7736 15.3007C65.3861 14.9587 65.1924 14.4565 65.1924 13.7545V7.54728H63.6075V5.27864H63.8099L63.8099 5.27869Z" fill="white"/>
<path d="M0 15.902V1.86548H6.94104C7.52905 1.86548 8.0912 1.98113 8.60465 2.19017C9.13806 2.40734 9.61783 2.72514 10.0188 3.11874C10.4198 3.51239 10.7434 3.98341 10.9647 4.50696C11.1777 5.01104 11.2954 5.56281 11.2954 6.13996C11.2954 6.39971 11.2704 6.65734 11.2224 6.91035C11.1732 7.16948 11.1007 7.41993 11.0072 7.65925C10.5969 8.70975 10.0182 9.18166 9.24522 9.81196L9.17792 9.86706L13.4909 16.1008H9.30481L4.59247 9.34239L7.46379 6.98053C7.48761 6.96088 7.47644 6.97056 7.5104 6.94312C7.57123 6.89381 7.62992 6.8464 7.68196 6.78924C7.76157 6.70192 7.82575 6.59951 7.86986 6.48664C7.91187 6.37911 7.93489 6.26218 7.93489 6.13996C7.93489 5.87187 7.82303 5.62798 7.64284 5.45105C7.4626 5.27417 7.21415 5.16431 6.94104 5.16431H3.36061V16.1008H5.66972e-05V15.902H0Z" fill="white"/>
<path d="M32.9314 18.6532L32.279 21.6807C32.1323 22.3655 31.8608 22.8655 31.4642 23.1809C31.0677 23.4963 30.5413 23.654 29.885 23.654C29.527 23.654 29.1983 23.6134 28.8987 23.5323C28.5993 23.4512 28.3426 23.3319 28.129 23.1742L28.6484 22.4106C28.7937 22.5322 28.9817 22.628 29.2126 22.6978C29.4434 22.7676 29.6874 22.8026 29.9444 22.8026C30.307 22.8026 30.5834 22.7248 30.7736 22.5694C30.9638 22.414 31.0954 22.1786 31.1684 21.8633L31.1979 21.7078C30.8961 21.9782 30.518 22.1133 30.0636 22.1133C29.7562 22.1133 29.4793 22.0514 29.2331 21.9274C28.9868 21.8036 28.793 21.6267 28.6514 21.397C28.5099 21.1673 28.4411 20.8969 28.4452 20.586C28.4501 20.2166 28.544 19.881 28.7269 19.5792C29.149 18.8829 29.7413 18.6533 30.5365 18.6533C30.9924 18.6533 31.4487 18.6533 31.9058 18.6533H32.0344H32.9315L32.9314 18.6532ZM61.5652 22.3429H59.4971C59.208 22.3429 58.9426 22.2776 58.7011 22.147C58.4596 22.0163 58.2682 21.8282 58.1268 21.5827C57.9855 21.3372 57.917 21.0477 57.9214 20.7143C57.9266 20.3134 58.0104 20.0055 58.1959 19.6835C58.3814 19.3613 58.6313 19.109 58.9458 18.9265C59.2603 18.744 59.6057 18.6529 59.982 18.6529H61.2887L61.3273 18.4746L61.5875 17.2746H62.6615L61.6056 22.1559L61.5652 22.3428V22.3429ZM38.3358 18.6532V18.6488H39.707C39.8461 18.6157 39.9927 18.5991 40.1467 18.5991C40.4037 18.5991 40.6313 18.6498 40.8296 18.7512C41.0279 18.8525 41.1763 19.0001 41.2747 19.1938C41.4563 19.0001 41.667 18.8525 41.907 18.7512C42.147 18.6498 42.4092 18.5991 42.6938 18.5991C43.0976 18.5991 43.4175 18.7061 43.6533 18.9201C43.8892 19.1341 44.0045 19.4371 43.9994 19.829C43.9975 19.9732 43.9783 20.1216 43.9454 20.275L43.5644 22.0491L43.5013 22.3429H42.4273L42.8567 20.3494C42.8761 20.2593 42.8867 20.1669 42.8879 20.0723C42.8903 19.8876 42.8428 19.748 42.7454 19.6533C42.648 19.5587 42.5029 19.5114 42.3102 19.5114C41.7915 19.5114 41.4591 19.8145 41.3276 20.4237L40.9129 22.3428H39.8389L40.2684 20.3493C40.2878 20.2592 40.2983 20.1691 40.2994 20.079C40.3018 19.8943 40.2543 19.7535 40.157 19.6566C40.0596 19.5598 39.9145 19.5113 39.7217 19.5113C39.2032 19.5113 38.8644 19.8181 38.7321 20.4372L38.3245 22.3428H37.2505L38.0464 18.6531H38.3359L38.3358 18.6532ZM56.8011 22.3429H54.707L54.7071 22.3425C54.6929 22.3428 54.6787 22.3429 54.6644 22.3429C54.2606 22.3429 53.9396 22.2348 53.7014 22.0186C53.4634 21.8023 53.3469 21.4982 53.352 21.1063C53.3539 20.9576 53.3719 20.8112 53.4059 20.667L53.8385 18.6532H54.9124L54.4945 20.5994C54.475 20.685 54.4647 20.7729 54.4635 20.863C54.4586 21.2414 54.6626 21.4306 55.0756 21.4306C55.3464 21.4306 55.5711 21.3529 55.7498 21.1975C55.9286 21.0421 56.0521 20.8089 56.1204 20.498L56.5233 18.6532H57.5972L56.8293 22.2126L56.8129 22.2889H56.8126L56.801 22.3429L56.8011 22.3429ZM30.364 21.2481C30.6761 21.2481 30.9343 21.1491 31.139 20.9508C31.3435 20.7526 31.4478 20.498 31.4519 20.1872C31.4548 19.9665 31.3836 19.7919 31.2385 19.6634C31.0932 19.5351 30.8898 19.4709 30.6283 19.4709C30.3116 19.4709 30.0499 19.57 29.843 19.7682C29.6362 19.9664 29.5307 20.221 29.5267 20.5318C29.5238 20.7526 29.5972 20.9271 29.747 21.0555C29.8968 21.1839 30.1025 21.2481 30.364 21.2481H30.364ZM37.6057 18.6532L35.0903 22.5321C34.8186 22.9556 34.5565 23.2484 34.3044 23.4106C34.0521 23.5727 33.7447 23.6539 33.3821 23.6539C33.1894 23.6539 33.0004 23.6246 32.8153 23.5661C32.6302 23.5075 32.4855 23.4309 32.3812 23.3363L32.8868 22.5794C33.05 22.7281 33.2464 22.8024 33.4759 22.8024C33.6136 22.8024 33.7334 22.7686 33.8352 22.701C33.9371 22.6334 34.0418 22.5185 34.1495 22.3564L34.1848 22.2956L33.3789 18.6532H34.4528L34.9711 21.1265L36.5456 18.6532H37.6057ZM47.7803 22.3429C47.459 22.3429 47.1555 22.308 46.8695 22.2381C46.5836 22.1683 46.361 22.0771 46.2019 21.9645L46.6249 21.2009C46.7842 21.3045 46.9793 21.3878 47.2103 21.4509C47.4412 21.514 47.6737 21.5455 47.9078 21.5455C48.151 21.5455 48.3327 21.5151 48.4528 21.4543C48.5729 21.3935 48.6338 21.3067 48.6353 21.1941C48.6364 21.1041 48.5845 21.0387 48.4795 20.9982C48.3744 20.9577 48.2052 20.9148 47.9717 20.8698C47.7062 20.8202 47.4878 20.7662 47.3165 20.7076C47.1451 20.6491 46.9972 20.5533 46.8728 20.4204C46.7483 20.2875 46.6875 20.1062 46.6905 19.8764C46.6958 19.4754 46.8709 19.1623 47.2158 18.9371C47.5606 18.7118 48.0107 18.5992 48.5661 18.5992C48.8231 18.5992 49.0728 18.6262 49.3153 18.6803C49.5579 18.7344 49.7634 18.8087 49.932 18.9033L49.5363 19.6737C49.2359 19.4889 48.8722 19.3966 48.4454 19.3966C48.2114 19.3966 48.0331 19.4304 47.9106 19.498C47.7881 19.5655 47.7261 19.6511 47.7248 19.7547C47.7235 19.8493 47.7754 19.9181 47.8804 19.9609C47.9854 20.0037 48.1614 20.0498 48.4087 20.0994C48.6696 20.149 48.8835 20.2018 49.0502 20.2582C49.217 20.3145 49.3615 20.408 49.4837 20.5386C49.6059 20.6692 49.6655 20.8472 49.6626 21.0725C49.6572 21.4779 49.4799 21.791 49.1304 22.0118C48.7811 22.2325 48.331 22.3429 47.7803 22.3429H47.7803ZM51.5635 21.0049C51.5556 21.0413 51.5485 21.0905 51.5477 21.1536C51.5447 21.3878 51.6739 21.505 51.9355 21.505C52.0778 21.505 52.2229 21.4622 52.3709 21.3766L52.5194 22.1268C52.2788 22.2709 51.9704 22.343 51.5941 22.343C51.2453 22.343 50.9665 22.2529 50.7578 22.0727C50.549 21.8925 50.4467 21.6447 50.4509 21.3293C50.452 21.2393 50.4634 21.1331 50.4894 21.0117L50.8221 19.4642H50.2508L50.4267 18.6533H50.998L51.1712 17.8492H52.2451L52.072 18.6533H52.9944L52.8185 19.4642H51.8961L51.5635 21.005V21.0049ZM59.839 21.4712C60.0501 21.4712 60.2389 21.4204 60.4055 21.3191C60.5721 21.2177 60.7024 21.0769 60.7966 20.8967C60.8907 20.7165 60.9393 20.5092 60.9424 20.275C60.9457 20.0271 60.8737 19.8312 60.7264 19.687C60.5791 19.5428 60.3724 19.4707 60.1062 19.4707C59.8951 19.4707 59.7063 19.5215 59.5397 19.6229C59.3731 19.7242 59.2428 19.865 59.1486 20.0452C59.0545 20.2254 59.0059 20.4327 59.0027 20.667C58.9995 20.9147 59.0715 21.1107 59.2188 21.2549C59.3661 21.3991 59.5728 21.4712 59.839 21.4712ZM63.3594 18.6532H64.4264L63.6547 22.2305L63.6295 22.3472H62.5625L63.3594 18.6532ZM64.082 18.1464C63.8983 18.1464 63.7487 18.0934 63.6331 17.9876C63.5174 17.8817 63.4606 17.7522 63.4627 17.599C63.465 17.4187 63.5324 17.269 63.6648 17.1496C63.7971 17.0302 63.9688 16.9705 64.1799 16.9705C64.3682 16.9705 64.5201 17.0212 64.6358 17.1225C64.7515 17.2239 64.8084 17.3489 64.8064 17.4976C64.8038 17.6913 64.7352 17.8479 64.6006 17.9673C64.4659 18.0866 64.293 18.1464 64.082 18.1464ZM66.5741 22.3429C66.2023 22.3429 65.8762 22.2753 65.5957 22.1402C65.3152 22.005 65.0997 21.8147 64.9492 21.5691C64.7987 21.3236 64.7255 21.0387 64.7298 20.7143C64.7351 20.3133 64.8361 19.9529 65.0331 19.633C65.23 19.3131 65.4995 19.0609 65.8416 18.8762C66.1836 18.6914 66.5681 18.5991 66.9949 18.5991C67.3712 18.5991 67.6986 18.6667 67.9767 18.8018C68.2549 18.937 68.4693 19.1273 68.6198 19.3728C68.7703 19.6184 68.8434 19.9033 68.8392 20.2277C68.8339 20.6287 68.734 20.989 68.5393 21.309C68.3447 21.6288 68.0751 21.8811 67.7308 22.0658C67.3864 22.2506 67.0009 22.3429 66.5741 22.3429H66.5741ZM66.6544 21.4712C66.8609 21.4712 67.0475 21.4204 67.214 21.3191C67.3805 21.2177 67.5108 21.0769 67.605 20.8967C67.6992 20.7165 67.7478 20.5092 67.7509 20.275C67.7542 20.0271 67.6833 19.8312 67.5383 19.687C67.3933 19.5428 67.1878 19.4707 66.9216 19.4707C66.7104 19.4707 66.5216 19.5215 66.3551 19.6229C66.1885 19.7242 66.0581 19.865 65.964 20.0452C65.8699 20.2254 65.8212 20.4327 65.8181 20.667C65.8148 20.9147 65.8869 21.1107 66.0342 21.2549C66.1815 21.3991 66.3882 21.4712 66.6544 21.4712Z" fill="#FF6600"/>
<path d="M14.765 5.80381C15.7577 4.46829 16.9996 3.22133 18.4322 2.22659C19.5614 1.44245 20.7007 0.866304 21.7919 0.496693C23.1676 0.0306313 24.4682 -0.106504 25.5797 0.0813344C26.8087 0.289042 27.8596 0.912997 28.6079 1.95148C28.925 2.39155 29.1904 2.90503 29.397 3.49275C29.9071 4.94415 29.7716 6.29781 29.1173 7.43197C28.5809 8.36176 27.6247 9.20995 26.3838 9.82651C25.19 10.4196 23.712 10.8103 22.0775 10.8589C20.0548 10.9189 17.7858 10.4539 15.507 9.19965C15.2526 9.58885 15.0226 9.98229 14.8187 10.3753C14.2662 11.4401 12.7996 14.0683 14.5278 14.6863C14.882 14.8129 15.3097 14.8804 15.7859 14.8928C16.6241 14.9146 17.5701 14.7544 18.5134 14.4349C19.1161 14.2308 19.7163 13.9627 20.2853 13.6368C20.1168 13.6024 19.9342 13.5769 19.7376 13.5582C18.8534 13.4745 18.8054 12.6002 18.8536 12.1102C18.9284 11.349 19.6941 11.4139 20.2433 11.4659C21.6801 11.6019 23.506 12.0748 24.1562 12.4578C24.6182 12.73 24.8865 13.237 24.8476 13.7645C24.7929 14.5069 24.1371 16.2453 23.424 17.4773C23.1516 17.9483 22.7653 18.6005 22.0878 18.2227C21.6518 17.9797 20.9508 17.4383 21.3894 16.6802C21.4409 16.5914 21.4884 16.5045 21.5319 16.4196C20.8131 16.8667 20.044 17.2258 19.2742 17.4866C18.2361 17.8382 17.1935 18.0144 16.268 17.9903C15.2748 17.9645 14.3793 17.7005 13.7086 17.1687C13.1759 16.7464 12.7516 16.1433 12.4698 15.3418C11.713 13.1893 12.1187 10.4575 13.4277 7.93448L13.4682 7.85729C12.0777 6.78269 11.0742 3.93628 12.8303 4.61439C13.5001 4.87303 14.3694 5.55085 14.7651 5.80381H14.765ZM17.2279 7.03942C18.7277 7.59793 20.1981 7.81065 21.5526 7.77035C23.0611 7.72555 24.4218 7.36663 25.518 6.82204C26.4378 6.36739 27.1705 5.79579 27.5994 5.17768C28.0483 4.53051 28.015 4.17594 27.3471 3.7062C26.9728 3.44306 26.4925 3.26323 25.9311 3.1684C24.9518 3.00282 23.792 3.12844 22.5526 3.54825C21.5404 3.89114 20.476 4.43079 19.4129 5.16906C18.6141 5.72373 17.882 6.35786 17.2279 7.03942Z" fill="#FF6600"/>
</svg>
