<svg width="113" height="113" viewBox="0 0 113 113" fill="none" xmlns="http://www.w3.org/2000/svg">
<path fill-rule="evenodd" clip-rule="evenodd" d="M56.4998 9.41675C82.504 9.41675 103.583 30.496 103.583 56.5001C103.583 82.5042 82.504 103.583 56.4998 103.583C30.4957 103.583 9.4165 82.5042 9.4165 56.5001C9.4165 30.496 30.4957 9.41675 56.4998 9.41675ZM65.8412 67.0938C63.3458 69.2973 60.0829 70.6251 56.4998 70.6251C53.0599 70.6247 49.7384 69.3691 47.1585 67.0938C46.222 66.2672 44.9954 65.8464 43.7486 65.9241C42.5018 66.0018 41.337 66.5716 40.5103 67.5082C39.6837 68.4447 39.2629 69.6713 39.3406 70.9181C39.4183 72.1648 39.9881 73.3297 40.9247 74.1563C45.2262 77.9499 50.7645 80.0427 56.4998 80.0417C62.2367 80.0514 67.7781 77.9575 72.075 74.1563C73.0115 73.3297 73.5813 72.1648 73.659 70.9181C73.7367 69.6713 73.316 68.4447 72.4893 67.5082C71.6627 66.5716 70.4978 66.0018 69.2511 65.9241C68.0043 65.8464 66.7777 66.2672 65.8412 67.0938ZM40.0207 37.6667C34.9027 37.6667 30.8018 40.8684 28.7489 44.9741C28.2093 46.0482 28.1009 47.2881 28.446 48.4396C28.7912 49.5911 29.5636 50.567 30.6052 51.1672C31.6467 51.7674 32.8783 51.9466 34.0477 51.6679C35.217 51.3892 36.2355 50.6738 36.8943 49.6683L37.1674 49.1927C37.9302 47.6672 39.0978 47.0834 40.0207 47.0834C40.8211 47.0834 41.8193 47.5307 42.5679 48.6654L42.8739 49.1927C43.4391 50.2991 44.4187 51.1373 45.5992 51.5246C46.7798 51.9118 48.0655 51.8168 49.1762 51.2602C50.287 50.7036 51.1327 49.7305 51.5291 48.553C51.9255 47.3755 51.8404 46.0891 51.2924 44.9741C49.2349 40.8684 45.1386 37.6667 40.0207 37.6667ZM72.979 37.6667C67.861 37.6667 63.7648 40.8684 61.7072 44.9741C61.1676 46.0482 61.0592 47.2881 61.4044 48.4396C61.7495 49.5911 62.522 50.567 63.5635 51.1672C64.605 51.7674 65.8367 51.9466 67.006 51.6679C68.1754 51.3892 69.1938 50.6738 69.8527 49.6683L70.1258 49.1927C70.8885 47.6672 72.0562 47.0834 72.979 47.0834C73.7794 47.0834 74.7776 47.5307 75.5262 48.6654L75.8323 49.1927C76.1063 49.7504 76.4881 50.2483 76.9555 50.6577C77.4229 51.0672 77.9667 51.38 78.5556 51.5783C79.1445 51.7765 79.7669 51.8563 80.3867 51.8129C81.0066 51.7694 81.6117 51.6038 82.1672 51.3254C82.7228 51.047 83.2177 50.6614 83.6235 50.1908C84.0293 49.7203 84.3379 49.174 84.5316 48.5836C84.7253 47.9932 84.8002 47.3703 84.752 46.7508C84.7038 46.1313 84.5334 45.5274 84.2507 44.9741C82.1979 40.8684 78.097 37.6667 72.979 37.6667Z" fill="white"/>
</svg>
